<?xml version="1.0" encoding="UTF-8" standalone="no"?>
<!-- Created with Inkscape (http://www.inkscape.org/) -->

<svg
   xmlns:dc="http://purl.org/dc/elements/1.1/"
   xmlns:cc="http://creativecommons.org/ns#"
   xmlns:rdf="http://www.w3.org/1999/02/22-rdf-syntax-ns#"
   xmlns:svg="http://www.w3.org/2000/svg"
   xmlns="http://www.w3.org/2000/svg"
   xmlns:sodipodi="http://sodipodi.sourceforge.net/DTD/sodipodi-0.dtd"
   xmlns:inkscape="http://www.inkscape.org/namespaces/inkscape"
   width="86.8825"
   height="164.31644"
   viewBox="0 0 86.8825 164.31644"
   id="svg9844"
   version="1.1"
   inkscape:version="0.91 r13725"
   sodipodi:docname="board.svg">
  <defs
     id="defs9846">
    <clipPath
       id="clipPath1826-5"
       clipPathUnits="userSpaceOnUse">
      <path
         inkscape:connector-curvature="0"
         id="path1824-2"
         d="m 70.5527,574.814 202.2373,0 0,-51.566 -202.2373,0 z" />
    </clipPath>
    <linearGradient
       id="linearGradient1836-3"
       spreadMethod="pad"
       gradientTransform="matrix(0,98.73317,98.73317,0,171.67139,522.83057)"
       gradientUnits="userSpaceOnUse"
       y2="0"
       x2="1"
       y1="0"
       x1="0">
      <stop
         id="stop1832-6"
         offset="0"
         style="stop-opacity:1;stop-color:#ffffff" />
      <stop
         id="stop1834-5"
         offset="1"
         style="stop-opacity:1;stop-color:#231f20" />
    </linearGradient>
    <clipPath
       id="clipPath1304-6"
       clipPathUnits="userSpaceOnUse">
      <path
         inkscape:connector-curvature="0"
         id="path1302-7"
         d="m 241.93,643.216 16.903,0 0,-56.38 -16.903,0 z" />
    </clipPath>
    <clipPath
       id="clipPath1280-3"
       clipPathUnits="userSpaceOnUse">
      <path
         inkscape:connector-curvature="0"
         id="path1278-2"
         d="m 225.027,643.216 16.903,0 0,-56.38 -16.903,0 z" />
    </clipPath>
    <clipPath
       id="clipPath1256-5"
       clipPathUnits="userSpaceOnUse">
      <path
         inkscape:connector-curvature="0"
         id="path1254-4"
         d="m 199.37,650 11.807,0 0,-63.164 -11.807,0 z" />
    </clipPath>
    <clipPath
       id="clipPath1240-8"
       clipPathUnits="userSpaceOnUse">
      <path
         inkscape:connector-curvature="0"
         id="path1238-9"
         d="m 188.744,643.216 10.76,0 0,-56.38 -10.76,0 z" />
    </clipPath>
    <clipPath
       id="clipPath1224-4"
       clipPathUnits="userSpaceOnUse">
      <path
         inkscape:connector-curvature="0"
         id="path1222-4"
         d="m 211.187,654.81 13.876,0 0,-67.974 -13.876,0 z" />
    </clipPath>
    <clipPath
       id="clipPath1198-8"
       clipPathUnits="userSpaceOnUse">
      <path
         inkscape:connector-curvature="0"
         id="path1196-1"
         d="m 168.542,654.81 20.202,0 0,-67.974 -20.202,0 z" />
    </clipPath>
    <clipPath
       id="clipPath1510-4"
       clipPathUnits="userSpaceOnUse">
      <path
         inkscape:connector-curvature="0"
         id="path1508-9"
         d="m 653.895,624.349 77.357,0 0,-10.384 -77.357,0 z" />
    </clipPath>
    <clipPath
       id="clipPath1494-1"
       clipPathUnits="userSpaceOnUse">
      <path
         inkscape:connector-curvature="0"
         id="path1492-4"
         d="m 662.202,614.082 69.05,0 0,-9.462 -69.05,0 z" />
    </clipPath>
    <clipPath
       id="clipPath1478-6"
       clipPathUnits="userSpaceOnUse">
      <path
         inkscape:connector-curvature="0"
         id="path1476-2"
         d="m 648.004,604.62 83.248,0 0,-17.77 -83.248,0 z" />
    </clipPath>
    <clipPath
       id="clipPath1320-1"
       clipPathUnits="userSpaceOnUse">
      <path
         inkscape:connector-curvature="0"
         id="path1318-3"
         d="m 517.567,574.814 228.766,0 0,-51.566 -228.766,0 z" />
    </clipPath>
    <linearGradient
       id="linearGradient1330-5"
       spreadMethod="pad"
       gradientTransform="matrix(0,98.73317,98.73317,0,631.9502,522.83057)"
       gradientUnits="userSpaceOnUse"
       y2="0"
       x2="1"
       y1="0"
       x1="0">
      <stop
         id="stop1326-0"
         offset="0"
         style="stop-opacity:1;stop-color:#ffffff" />
      <stop
         id="stop1328-8"
         offset="1"
         style="stop-opacity:1;stop-color:#231f20" />
    </linearGradient>
  </defs>
  <sodipodi:namedview
     id="base"
     pagecolor="#ffffff"
     bordercolor="#666666"
     borderopacity="1.0"
     inkscape:pageopacity="0.0"
     inkscape:pageshadow="2"
     inkscape:zoom="0.98994949"
     inkscape:cx="194.32466"
     inkscape:cy="292.52257"
     inkscape:document-units="px"
     inkscape:current-layer="layer1"
     showgrid="false"
     units="px"
     inkscape:window-width="1920"
     inkscape:window-height="1017"
     inkscape:window-x="-8"
     inkscape:window-y="-8"
     inkscape:window-maximized="1"
     fit-margin-top="0"
     fit-margin-left="0"
     fit-margin-right="0"
     fit-margin-bottom="0" />
  <metadata
     id="metadata9849">
    <rdf:RDF>
      <cc:Work
         rdf:about="">
        <dc:format>image/svg+xml</dc:format>
        <dc:type
           rdf:resource="http://purl.org/dc/dcmitype/StillImage" />
        <dc:title></dc:title>
      </cc:Work>
    </rdf:RDF>
  </metadata>
  <g
     inkscape:label="Capa 1"
     inkscape:groupmode="layer"
     id="layer1"
     transform="translate(-3.4458e-6,-888.04576)">
    <path
       id="path618"
       style="fill:#354b59;fill-opacity:1;fill-rule:nonzero;stroke:none"
       d="m 43.440665,1052.3622 -10.624026,0 0,-73.18643 10.624026,0 z"
       inkscape:connector-curvature="0" />
    <path
       id="path620"
       style="fill:#506875;fill-opacity:1;fill-rule:nonzero;stroke:none"
       d="m 38.128652,1052.3622 -5.312013,0 0,-73.18643 5.312013,0 z"
       inkscape:connector-curvature="0" />
    <g
       transform="matrix(0.65726465,0,0,-0.65726465,3.4150018e-4,888.04576)"
       id="g622">
      <path
         id="path624"
         style="fill:#f1f2f2;fill-opacity:1;fill-rule:nonzero;stroke:none"
         d="m 0,0 0,-121.41 99.855,5.031 0,96.983 z"
         inkscape:connector-curvature="0" />
    </g>
    <g
       transform="matrix(0.65726465,0,0,-0.65726465,5.1493495,894.30581)"
       id="g626">
      <path
         id="path628"
         style="fill:#fffeff;fill-opacity:1;fill-rule:nonzero;stroke:none"
         d="m 0,0 0,-102.361 84.188,4.241 0,81.766 z"
         inkscape:connector-curvature="0" />
    </g>
    <g
       transform="matrix(0.65726465,0,0,-0.65726465,1.2731322,966.69032)"
       id="g630">
      <path
         id="path632"
         style="fill:#bcbec0;fill-opacity:1;fill-rule:nonzero;stroke:none"
         d="m 0,0 0,119.278 -1.937,0.376 0,-121.409 99.856,5.03 0,1.658 z"
         inkscape:connector-curvature="0" />
    </g>
    <g
       transform="matrix(0.65726465,0,0,-0.65726465,86.882503,982.06992)"
       id="g634">
      <path
         id="path636"
         style="fill:#354b59;fill-opacity:1;fill-rule:nonzero;stroke:none"
         d="m 0,0 -99.855,-5.03 -32.333,26.674 99.856,5.03"
         inkscape:connector-curvature="0" />
    </g>
    <g
       transform="matrix(0.65726465,0,0,-0.65726465,73.757131,979.92096)"
       id="g638">
      <path
         id="path640"
         style="fill:#fffeff;fill-opacity:1;fill-rule:nonzero;stroke:none"
         d="m 0,0 -69.686,-3.511 -22.562,18.616 69.685,3.51"
         inkscape:connector-curvature="0" />
    </g>
    <g
       transform="matrix(0.65726465,0,0,-0.65726465,22.262614,937.23822)"
       id="g642">
      <path
         id="path644"
         style="fill:#78c6ce;fill-opacity:1;fill-rule:nonzero;stroke:none"
         d="m 0,0 c 1.03,-0.881 0.727,-3.335 0.723,-4.659 -0.008,-2.662 4.119,-2.66 4.128,0 C 4.859,-2.167 5.005,1.133 2.919,2.92 0.908,4.641 -2.025,1.734 0,0"
         inkscape:connector-curvature="0" />
    </g>
    <g
       transform="matrix(0.65726465,0,0,-0.65726465,33.812855,947.81867)"
       id="g646">
      <path
         id="path648"
         style="fill:#78c6ce;fill-opacity:1;fill-rule:nonzero;stroke:none"
         d="M 0,0 C -0.042,1.637 -1.166,2.682 -2.444,3.527 -2.987,3.888 -3.568,4.194 -4.134,4.52 -4.428,4.69 -4.716,4.87 -4.998,5.061 -4.612,4.798 -5.464,5.667 -5.073,5.095 -5.706,6.024 -6.876,6.436 -7.897,5.836 -8.816,5.298 -9.272,3.944 -8.639,3.013 -7.934,1.981 -6.905,1.348 -5.84,0.738 c 0.502,-0.286 1.003,-0.57 1.486,-0.888 0.202,-0.147 0.22,-0.156 0.054,-0.028 0.094,-0.077 0.182,-0.157 0.268,-0.241 0.161,-0.177 0.155,-0.164 -0.015,0.043 C -3.825,-0.691 -4.125,-0.122 -4.129,0 -4.059,-2.657 0.07,-2.663 0,0"
         inkscape:connector-curvature="0" />
    </g>
    <g
       transform="matrix(0.65726465,0,0,-0.65726465,28.181872,953.1714)"
       id="g650">
      <path
         id="path652"
         style="fill:#78c6ce;fill-opacity:1;fill-rule:nonzero;stroke:none"
         d="M 0,0 C -0.596,-1.751 -1.31,-3.462 -1.844,-5.234 -2.613,-7.79 1.372,-8.875 2.137,-6.333 2.671,-4.559 3.385,-2.851 3.981,-1.099 4.84,1.43 0.851,2.505 0,0"
         inkscape:connector-curvature="0" />
    </g>
    <g
       transform="matrix(0.65726465,0,0,-0.65726465,24.181105,955.34925)"
       id="g654">
      <path
         id="path656"
         style="fill:#78c6ce;fill-opacity:1;fill-rule:nonzero;stroke:none"
         d="m 0,0 c -1.685,1.443 -3.564,2.326 -5.81,2.375 -2.664,0.058 -2.659,-4.071 0,-4.129 1.095,-0.024 2.03,-0.428 2.891,-1.165 0.853,-0.732 2.077,-0.841 2.919,0 C 0.749,-2.17 0.854,-0.733 0,0"
         inkscape:connector-curvature="0" />
    </g>
    <g
       transform="matrix(0.65726465,0,0,-0.65726465,15.008319,953.70966)"
       id="g658">
      <path
         id="path660"
         style="fill:#78c6ce;fill-opacity:1;fill-rule:nonzero;stroke:none"
         d="m 0,0 c -0.422,2.66 -3.708,3.673 -5.74,4.771 -2.341,1.265 -4.427,-2.299 -2.084,-3.564 0.827,-0.446 1.692,-0.814 2.52,-1.259 0.214,-0.115 0.421,-0.24 0.628,-0.366 -0.041,0.025 0.58,-0.411 0.327,-0.209 0.162,-0.13 0.306,-0.279 0.447,-0.433 -0.128,0.165 -0.133,0.151 -0.013,-0.043 -0.098,0.227 -0.12,0.228 -0.065,0.004 0.176,-1.112 1.546,-1.714 2.539,-1.442 C -0.268,-2.217 0.176,-1.111 0,0"
         inkscape:connector-curvature="0" />
    </g>
    <g
       transform="matrix(0.65726465,0,0,-0.65726465,19.879367,951.5113)"
       id="g662">
      <path
         id="path664"
         style="fill:#78c6ce;fill-opacity:1;fill-rule:nonzero;stroke:none"
         d="m 0,0 c 0.174,1.152 0.408,2.315 1.164,3.217 0.722,0.863 0.847,2.071 0,2.919 C 0.422,6.879 -1.032,7 -1.756,6.136 -2.989,4.662 -3.692,2.995 -3.981,1.098 -4.151,-0.014 -3.719,-1.117 -2.54,-1.441 -1.553,-1.713 -0.171,-1.114 0,0"
         inkscape:connector-curvature="0" />
    </g>
    <g
       transform="matrix(0.65726465,0,0,-0.65726465,22.371714,941.5602)"
       id="g666">
      <path
         id="path668"
         style="fill:#78c6ce;fill-opacity:1;fill-rule:nonzero;stroke:none"
         d="m 0,0 c -2.139,0.471 -4.499,0.575 -6.627,0 -2.567,-0.694 -1.477,-4.677 1.098,-3.981 1.41,0.383 3.013,0.313 4.431,0 C 1.497,-4.552 2.6,-0.572 0,0"
         inkscape:connector-curvature="0" />
    </g>
    <g
       transform="matrix(0.65726465,0,0,-0.65726465,13.200838,944.37701)"
       id="g670">
      <path
         id="path672"
         style="fill:#78c6ce;fill-opacity:1;fill-rule:nonzero;stroke:none"
         d="m 0,0 c 0.602,1.1 1.689,2.461 3.009,2.517 2.652,0.109 2.663,4.238 0,4.129 C 0.147,6.527 -2.23,4.522 -3.564,2.084 -4.844,-0.252 -1.278,-2.336 0,0"
         inkscape:connector-curvature="0" />
    </g>
    <g
       transform="matrix(0.65726465,0,0,-0.65726465,17.907576,933.58508)"
       id="g674">
      <path
         id="path676"
         style="fill:#78c6ce;fill-opacity:1;fill-rule:nonzero;stroke:none"
         d="m 0,0 c -0.848,0.72 -1.74,1.203 -2.753,1.645 -1.139,0.497 -2.099,1.125 -3.072,1.894 -0.882,0.695 -2.054,0.864 -2.919,0 -0.726,-0.726 -0.884,-2.222 0,-2.92 0.961,-0.757 1.892,-1.544 2.981,-2.115 0.918,-0.481 2.042,-0.742 2.843,-1.423 0.856,-0.728 2.076,-0.843 2.92,0 C 0.746,-2.172 0.857,-0.73 0,0"
         inkscape:connector-curvature="0" />
    </g>
    <g
       transform="matrix(0.65726465,0,0,-0.65726465,47.790642,915.69164)"
       id="g678">
      <path
         id="path680"
         style="fill:#78c6ce;fill-opacity:1;fill-rule:nonzero;stroke:none"
         d="M 0,0 C 1.918,2.89 2.438,2.618 1.156,-0.604 -0.126,-3.827 0.852,-4.477 3.327,-2.049 5.803,0.379 6.255,0.004 4.331,-2.881 2.407,-5.767 3.229,-6.605 6.155,-4.746 9.082,-2.885 9.447,-3.345 6.965,-5.768 4.482,-8.19 5.111,-9.182 8.36,-7.971 c 3.25,1.211 3.512,0.686 0.58,-1.168 -2.931,-1.853 -2.522,-2.954 0.909,-2.445 3.43,0.509 3.576,-0.06 0.323,-1.264 -3.253,-1.203 -3.082,-2.364 0.38,-2.58 3.461,-0.216 3.484,-0.801 0.053,-1.302 -3.432,-0.501 -3.505,-1.673 -0.165,-2.603 3.342,-0.931 3.243,-1.509 -0.218,-1.286 -3.461,0.223 -3.778,-0.907 -0.703,-2.512 3.075,-1.604 2.858,-2.15 -0.481,-1.212 -3.338,0.938 -3.883,-0.102 -1.209,-2.31 2.674,-2.21 2.349,-2.699 -0.723,-1.087 -3.071,1.612 -3.819,0.709 -1.664,-2.008 2.158,-2.716 1.738,-3.127 -0.93,-0.912 -2.669,2.215 -3.589,1.487 -2.046,-1.62 1.545,-3.105 1.049,-3.419 -1.102,-0.698 -2.148,2.722 -3.201,2.201 -2.336,-1.158 0.865,-3.358 0.314,-3.563 -1.222,-0.453 -1.537,3.109 -2.674,2.818 -2.527,-0.648 0.147,-3.465 -0.433,-3.551 -1.29,-0.19 -0.857,3.361 -2.029,3.312 -2.606,-0.107 -0.576,-3.42 -1.162,-3.383 -1.302,0.082 -0.14,3.465 -1.297,3.662 -2.57,0.436 -1.277,-3.225 -1.841,-3.067 -1.256,0.351 0.584,3.419 -0.507,3.852 -2.425,0.962 -1.918,-2.89 -2.437,-2.617 -1.155,0.604 1.282,3.224 0.304,3.873 -2.173,1.446 -2.476,-2.429 -2.928,-2.055 -1.004,0.831 1.924,2.886 1.104,3.725 -1.824,1.865 -2.927,-1.861 -3.291,-1.4 -0.809,1.022 2.482,2.422 1.854,3.414 -1.396,2.203 -3.25,-1.211 -3.512,-0.685 -0.579,1.168 2.93,1.854 2.523,2.954 -0.908,2.445 -3.43,-0.509 -3.577,0.06 -0.325,1.264 3.253,1.203 3.083,2.364 -0.379,2.58 -3.462,0.216 -3.485,0.802 -0.052,1.303 3.43,0.501 3.505,1.672 0.164,2.603 -3.341,0.931 -3.244,1.509 0.217,1.285 3.461,-0.224 3.779,0.907 0.704,2.512 -3.075,1.605 -2.859,2.15 0.48,1.212 3.34,-0.938 3.883,0.102 1.209,2.311 -2.673,2.209 -2.348,2.698 0.724,1.086 3.07,-1.613 3.818,-0.708 1.663,2.008 -2.156,2.717 -1.737,3.128 0.932,0.913 2.668,-2.216 3.589,-1.487 2.044,1.619 -1.544,3.105 -1.048,3.419 1.102,0.697 2.15,-2.721 3.201,-2.2 2.336,1.159 -0.864,3.359 -0.314,3.563 1.222,0.454 1.539,-3.109 2.676,-2.818 2.528,0.648 -0.148,3.464 0.432,3.55 1.29,0.189 0.856,-3.36 2.03,-3.312 2.606,0.108 0.577,3.419 1.162,3.383 1.301,-0.083 0.14,-3.465 1.297,-3.662 2.572,-0.436 1.275,3.226 1.84,3.067 1.256,-0.352 C -3.009,-2.457 -1.918,-2.89 0,0"
         inkscape:connector-curvature="0" />
    </g>
    <g
       transform="matrix(0.65726465,0,0,-0.65726465,38.705138,924.3978)"
       id="g682">
      <path
         id="path684"
         style="fill:#027da3;fill-opacity:1;fill-rule:nonzero;stroke:none"
         d="m 0,0 c 0.015,-0.331 0.146,-0.579 0.375,-0.809 0.195,-0.196 0.521,-0.195 0.716,0 0.196,0.195 0.195,0.521 0,0.717 C 1.074,-0.075 0.962,0.054 1.038,-0.046 1.022,-0.023 1.008,0 0.996,0.024 1.013,-0.008 1.02,-0.117 1.015,0 1.003,0.276 0.793,0.506 0.508,0.506 0.24,0.506 -0.011,0.276 0,0"
         inkscape:connector-curvature="0" />
    </g>
    <g
       transform="matrix(0.65726465,0,0,-0.65726465,39.631358,926.28614)"
       id="g686">
      <path
         id="path688"
         style="fill:#027da3;fill-opacity:1;fill-rule:nonzero;stroke:none"
         d="m 0,0 0.226,0 c 0.652,0 0.652,1.014 0,1.014 L 0,1.014 C -0.654,1.014 -0.654,0 0,0"
         inkscape:connector-curvature="0" />
    </g>
    <g
       transform="matrix(0.65726465,0,0,-0.65726465,41.741114,924.99028)"
       id="g690">
      <path
         id="path692"
         style="fill:#027da3;fill-opacity:1;fill-rule:nonzero;stroke:none"
         d="m 0,0 0,0.113 c 0,0.653 -1.013,0.653 -1.013,0 L -1.013,0 C -1.013,-0.654 0,-0.654 0,0"
         inkscape:connector-curvature="0" />
    </g>
    <g
       transform="matrix(0.65726465,0,0,-0.65726465,41.778374,927.17448)"
       id="g694">
      <path
         id="path696"
         style="fill:#027da3;fill-opacity:1;fill-rule:nonzero;stroke:none"
         d="M 0,0 C 0.654,0 0.654,1.014 0,1.014 -0.654,1.014 -0.654,0 0,0"
         inkscape:connector-curvature="0" />
    </g>
    <g
       transform="matrix(0.65726465,0,0,-0.65726465,47.924197,928.24832)"
       id="g698">
      <path
         id="path700"
         style="fill:#027da3;fill-opacity:1;fill-rule:nonzero;stroke:none"
         d="M 0,0 C 0.122,0.016 0.21,0.038 0.323,0.087 0.366,0.119 0.408,0.151 0.45,0.184 0.525,0.256 0.344,0.134 0.443,0.177 0.359,0.154 0.273,0.131 0.189,0.108 0.201,0.109 0.213,0.111 0.226,0.113 0.499,0.148 0.732,0.316 0.732,0.62 0.732,0.869 0.5,1.162 0.226,1.126 0.104,1.11 0.017,1.089 -0.098,1.04 -0.14,1.008 -0.182,0.976 -0.224,0.942 -0.299,0.87 -0.117,0.993 -0.219,0.95 -0.133,0.973 -0.047,0.996 0.037,1.019 0.025,1.017 0.014,1.016 0,1.014 -0.274,0.979 -0.506,0.81 -0.506,0.507 -0.506,0.258 -0.274,-0.036 0,0"
         inkscape:connector-curvature="0" />
    </g>
    <g
       transform="matrix(0.65726465,0,0,-0.65726465,46.146887,924.6571)"
       id="g702">
      <path
         id="path704"
         style="fill:#027da3;fill-opacity:1;fill-rule:nonzero;stroke:none"
         d="M 0,0 C 0.654,0 0.654,1.014 0,1.014 -0.652,1.014 -0.652,0 0,0"
         inkscape:connector-curvature="0" />
    </g>
    <g
       transform="matrix(0.65726465,0,0,-0.65726465,46.146887,927.54488)"
       id="g706">
      <path
         id="path708"
         style="fill:#027da3;fill-opacity:1;fill-rule:nonzero;stroke:none"
         d="M 0,0 C 0.654,0 0.654,1.014 0,1.014 -0.652,1.014 -0.652,0 0,0"
         inkscape:connector-curvature="0" />
    </g>
    <g
       transform="matrix(0.65726465,0,0,-0.65726465,45.332996,927.7673)"
       id="g710">
      <path
         id="path712"
         style="fill:#027da3;fill-opacity:1;fill-rule:nonzero;stroke:none"
         d="M 0,0 C 0.653,0 0.653,1.014 0,1.014 -0.654,1.014 -0.654,0 0,0"
         inkscape:connector-curvature="0" />
    </g>
    <g
       transform="matrix(0.65726465,0,0,-0.65726465,43.3336,926.95275)"
       id="g714">
      <path
         id="path716"
         style="fill:#027da3;fill-opacity:1;fill-rule:nonzero;stroke:none"
         d="M 0,0 C 0.653,0 0.653,1.014 0,1.014 -0.653,1.014 -0.653,0 0,0"
         inkscape:connector-curvature="0" />
    </g>
    <g
       transform="matrix(0.65726465,0,0,-0.65726465,42.000469,922.58356)"
       id="g718">
      <path
         id="path720"
         style="fill:#027da3;fill-opacity:1;fill-rule:nonzero;stroke:none"
         d="M 0,0 C 0.654,0 0.654,1.014 0,1.014 -0.654,1.014 -0.654,0 0,0"
         inkscape:connector-curvature="0" />
    </g>
    <g
       transform="matrix(0.65726465,0,0,-0.65726465,45.999266,926.21205)"
       id="g722">
      <path
         id="path724"
         style="fill:#027da3;fill-opacity:1;fill-rule:nonzero;stroke:none"
         d="M 0,0 C 0.653,0 0.653,1.014 0,1.014 -0.653,1.014 -0.653,0 0,0"
         inkscape:connector-curvature="0" />
    </g>
    <g
       transform="matrix(0.65726465,0,0,-0.65726465,43.48122,923.69466)"
       id="g726">
      <path
         id="path728"
         style="fill:#027da3;fill-opacity:1;fill-rule:nonzero;stroke:none"
         d="M 0,0 C 0.654,0 0.654,1.014 0,1.014 -0.653,1.014 -0.653,0 0,0"
         inkscape:connector-curvature="0" />
    </g>
    <g
       transform="matrix(0.65726465,0,0,-0.65726465,37.927197,927.54488)"
       id="g730">
      <path
         id="path732"
         style="fill:#027da3;fill-opacity:1;fill-rule:nonzero;stroke:none"
         d="M 0,0 C 0.654,0 0.654,1.014 0,1.014 -0.652,1.014 -0.652,0 0,0"
         inkscape:connector-curvature="0" />
    </g>
    <g
       transform="matrix(0.65726465,0,0,-0.65726465,41.667299,928.73003)"
       id="g734">
      <path
         id="path736"
         style="fill:#027da3;fill-opacity:1;fill-rule:nonzero;stroke:none"
         d="M 0,0 C 0.653,0 0.653,1.015 0,1.015 -0.654,1.015 -0.654,0 0,0"
         inkscape:connector-curvature="0" />
    </g>
    <g
       transform="matrix(0.65726465,0,0,-0.65726465,39.779638,927.91523)"
       id="g738">
      <path
         id="path740"
         style="fill:#027da3;fill-opacity:1;fill-rule:nonzero;stroke:none"
         d="M 0,0 C 0.652,0 0.652,1.014 0,1.014 -0.654,1.014 -0.654,0 0,0"
         inkscape:connector-curvature="0" />
    </g>
    <g
       transform="matrix(0.65726465,0,0,-0.65726465,42.74114,930.2108)"
       id="g742">
      <path
         id="path744"
         style="fill:#027da3;fill-opacity:1;fill-rule:nonzero;stroke:none"
         d="M 0,0 C 0.138,0.005 0.273,0.027 0.408,0.061 0.456,0.073 0.504,0.088 0.553,0.102 0.589,0.113 0.715,0.124 0.563,0.113 0.839,0.133 1.07,0.329 1.07,0.62 1.07,0.881 0.839,1.147 0.563,1.126 0.449,1.119 0.345,1.098 0.237,1.066 0.13,1.036 0.054,1.017 0,1.015 -0.276,1.003 -0.507,0.792 -0.507,0.507 -0.507,0.239 -0.276,-0.01 0,0"
         inkscape:connector-curvature="0" />
    </g>
    <g
       transform="matrix(0.65726465,0,0,-0.65726465,45.777176,929.10008)"
       id="g746">
      <path
         id="path748"
         style="fill:#027da3;fill-opacity:1;fill-rule:nonzero;stroke:none"
         d="M 0,0 C 0.654,0 0.654,1.014 0,1.014 -0.654,1.014 -0.654,0 0,0"
         inkscape:connector-curvature="0" />
    </g>
    <g
       transform="matrix(0.65726465,0,0,-0.65726465,43.48122,928.2114)"
       id="g750">
      <path
         id="path752"
         style="fill:#027da3;fill-opacity:1;fill-rule:nonzero;stroke:none"
         d="M 0,0 C 0.654,0 0.654,1.014 0,1.014 -0.653,1.014 -0.653,0 0,0"
         inkscape:connector-curvature="0" />
    </g>
    <g
       transform="matrix(0.65726465,0,0,-0.65726465,47.110307,929.76635)"
       id="g754">
      <path
         id="path756"
         style="fill:#027da3;fill-opacity:1;fill-rule:nonzero;stroke:none"
         d="m 0,0 -0.226,0 c -0.654,0 -0.654,-1.014 0,-1.014 l 0.226,0 C 0.653,-1.014 0.653,0 0,0"
         inkscape:connector-curvature="0" />
    </g>
    <g
       transform="matrix(0.65726465,0,0,-0.65726465,51.238124,928.73003)"
       id="g758">
      <path
         id="path760"
         style="fill:#027da3;fill-opacity:1;fill-rule:nonzero;stroke:none"
         d="M 0,0 C 0.654,0 0.654,1.015 0,1.015 -0.653,1.015 -0.653,0 0,0"
         inkscape:connector-curvature="0" />
    </g>
    <g
       transform="matrix(0.65726465,0,0,-0.65726465,40.890014,923.47224)"
       id="g762">
      <path
         id="path764"
         style="fill:#027da3;fill-opacity:1;fill-rule:nonzero;stroke:none"
         d="M 0,0 C 0.654,0 0.654,1.014 0,1.014 -0.654,1.014 -0.654,0 0,0"
         inkscape:connector-curvature="0" />
    </g>
    <g
       transform="matrix(0.65726465,0,0,-0.65726465,44.370171,923.17638)"
       id="g766">
      <path
         id="path768"
         style="fill:#027da3;fill-opacity:1;fill-rule:nonzero;stroke:none"
         d="M 0,0 C 0.653,0 0.653,1.015 0,1.015 -0.653,1.015 -0.653,0 0,0"
         inkscape:connector-curvature="0" />
    </g>
    <g
       transform="matrix(0.65726465,0,0,-0.65726465,45.258526,924.36088)"
       id="g770">
      <path
         id="path772"
         style="fill:#027da3;fill-opacity:1;fill-rule:nonzero;stroke:none"
         d="M 0,0 C 0.654,0 0.654,1.014 0,1.014 -0.653,1.014 -0.653,0 0,0"
         inkscape:connector-curvature="0" />
    </g>
    <g
       transform="matrix(0.65726465,0,0,-0.65726465,46.295097,922.28769)"
       id="g774">
      <path
         id="path776"
         style="fill:#027da3;fill-opacity:1;fill-rule:nonzero;stroke:none"
         d="M 0,0 C 0.654,0 0.654,1.015 0,1.015 -0.653,1.015 -0.653,0 0,0"
         inkscape:connector-curvature="0" />
    </g>
    <g
       transform="matrix(0.65726465,0,0,-0.65726465,41.481824,930.58085)"
       id="g778">
      <path
         id="path780"
         style="fill:#027da3;fill-opacity:1;fill-rule:nonzero;stroke:none"
         d="M 0,0 C 0.654,0 0.654,1.014 0,1.014 -0.652,1.014 -0.652,0 0,0"
         inkscape:connector-curvature="0" />
    </g>
    <g
       transform="matrix(0.65726465,0,0,-0.65726465,39.112713,930.58085)"
       id="g782">
      <path
         id="path784"
         style="fill:#027da3;fill-opacity:1;fill-rule:nonzero;stroke:none"
         d="M 0,0 C 0.654,0 0.654,1.014 0,1.014 -0.654,1.014 -0.654,0 0,0"
         inkscape:connector-curvature="0" />
    </g>
    <g
       transform="matrix(0.65726465,0,0,-0.65726465,39.815523,929.69221)"
       id="g786">
      <path
         id="path788"
         style="fill:#027da3;fill-opacity:1;fill-rule:nonzero;stroke:none"
         d="M 0,0 C 0.654,0 0.654,1.014 0,1.014 -0.652,1.014 -0.652,0 0,0"
         inkscape:connector-curvature="0" />
    </g>
    <g
       transform="matrix(0.65726465,0,0,-0.65726465,38.372037,926.21205)"
       id="g790">
      <path
         id="path792"
         style="fill:#027da3;fill-opacity:1;fill-rule:nonzero;stroke:none"
         d="M 0,0 C 0.654,0 0.654,1.014 0,1.014 -0.654,1.014 -0.654,0 0,0"
         inkscape:connector-curvature="0" />
    </g>
    <g
       transform="matrix(0.65726465,0,0,-0.65726465,36.299416,927.7673)"
       id="g794">
      <path
         id="path796"
         style="fill:#027da3;fill-opacity:1;fill-rule:nonzero;stroke:none"
         d="M 0,0 C 0.652,0 0.652,1.014 0,1.014 -0.654,1.014 -0.654,0 0,0"
         inkscape:connector-curvature="0" />
    </g>
    <g
       transform="matrix(0.65726465,0,0,-0.65726465,33.89245,926.65649)"
       id="g798">
      <path
         id="path800"
         style="fill:#027da3;fill-opacity:1;fill-rule:nonzero;stroke:none"
         d="M 0,0 C 0.653,0 0.653,1.014 0,1.014 -0.654,1.014 -0.654,0 0,0"
         inkscape:connector-curvature="0" />
    </g>
    <g
       transform="matrix(0.65726465,0,0,-0.65726465,38.372037,929.3963)"
       id="g802">
      <path
         id="path804"
         style="fill:#027da3;fill-opacity:1;fill-rule:nonzero;stroke:none"
         d="M 0,0 C 0.654,0 0.654,1.014 0,1.014 -0.654,1.014 -0.654,0 0,0"
         inkscape:connector-curvature="0" />
    </g>
    <g
       transform="matrix(0.65726465,0,0,-0.65726465,36.484306,926.28614)"
       id="g806">
      <path
         id="path808"
         style="fill:#027da3;fill-opacity:1;fill-rule:nonzero;stroke:none"
         d="M 0,0 C 0.654,0 0.654,1.014 0,1.014 -0.654,1.014 -0.654,0 0,0"
         inkscape:connector-curvature="0" />
    </g>
    <g
       transform="matrix(0.65726465,0,0,-0.65726465,35.447076,923.58325)"
       id="g810">
      <path
         id="path812"
         style="fill:#027da3;fill-opacity:1;fill-rule:nonzero;stroke:none"
         d="M 0,0 C 0.654,0 0.654,1.014 0,1.014 -0.652,1.014 -0.652,0 0,0"
         inkscape:connector-curvature="0" />
    </g>
    <g
       transform="matrix(0.65726465,0,0,-0.65726465,36.705741,924.6571)"
       id="g814">
      <path
         id="path816"
         style="fill:#027da3;fill-opacity:1;fill-rule:nonzero;stroke:none"
         d="M 0,0 C 0.654,0 0.654,1.014 0,1.014 -0.652,1.014 -0.652,0 0,0"
         inkscape:connector-curvature="0" />
    </g>
    <g
       transform="matrix(0.65726465,0,0,-0.65726465,48.442778,923.32397)"
       id="g818">
      <path
         id="path820"
         style="fill:#027da3;fill-opacity:1;fill-rule:nonzero;stroke:none"
         d="m 0,0 c 0.015,-0.331 0.144,-0.579 0.375,-0.81 0.195,-0.195 0.521,-0.194 0.716,0 0.196,0.196 0.195,0.522 0,0.718 C 1.074,-0.075 0.962,0.055 1.038,-0.046 1.022,-0.024 1.008,0 0.996,0.024 1.013,-0.008 1.02,-0.117 1.015,0 1.003,0.275 0.793,0.506 0.508,0.506 0.24,0.506 -0.012,0.276 0,0"
         inkscape:connector-curvature="0" />
    </g>
    <g
       transform="matrix(0.65726465,0,0,-0.65726465,37.964402,918.73303)"
       id="g822">
      <path
         id="path824"
         style="fill:#027da3;fill-opacity:1;fill-rule:nonzero;stroke:none"
         d="m 0,0 0.227,0 c 0.653,0 0.653,1.014 0,1.014 L 0,1.014 C -0.652,1.014 -0.652,0 0,0"
         inkscape:connector-curvature="0" />
    </g>
    <g
       transform="matrix(0.65726465,0,0,-0.65726465,40.076128,917.43752)"
       id="g826">
      <path
         id="path828"
         style="fill:#027da3;fill-opacity:1;fill-rule:nonzero;stroke:none"
         d="m 0,0 0,0.113 c 0,0.654 -1.015,0.654 -1.015,0 L -1.015,0 C -1.015,-0.653 0,-0.653 0,0"
         inkscape:connector-curvature="0" />
    </g>
    <g
       transform="matrix(0.65726465,0,0,-0.65726465,40.112078,919.62172)"
       id="g830">
      <path
         id="path832"
         style="fill:#027da3;fill-opacity:1;fill-rule:nonzero;stroke:none"
         d="M 0,0 C 0.654,0 0.654,1.014 0,1.014 -0.654,1.014 -0.654,0 0,0"
         inkscape:connector-curvature="0" />
    </g>
    <g
       transform="matrix(0.65726465,0,0,-0.65726465,42.185944,918.141)"
       id="g834">
      <path
         id="path836"
         style="fill:#027da3;fill-opacity:1;fill-rule:nonzero;stroke:none"
         d="M 0,0 C 0.121,0.016 0.21,0.038 0.322,0.087 0.365,0.119 0.407,0.151 0.45,0.185 0.525,0.257 0.343,0.134 0.443,0.178 0.358,0.154 0.273,0.131 0.188,0.108 0.2,0.109 0.213,0.111 0.225,0.113 0.499,0.148 0.732,0.316 0.732,0.62 0.732,0.869 0.5,1.163 0.225,1.127 0.103,1.111 0.015,1.089 -0.098,1.04 -0.141,1.008 -0.184,0.976 -0.224,0.942 -0.3,0.871 -0.118,0.993 -0.219,0.95 -0.133,0.973 -0.048,0.996 0.037,1.019 0.023,1.018 0.012,1.016 0,1.015 -0.274,0.979 -0.508,0.811 -0.508,0.507 -0.508,0.258 -0.275,-0.036 0,0"
         inkscape:connector-curvature="0" />
    </g>
    <g
       transform="matrix(0.65726465,0,0,-0.65726465,51.77471,923.58325)"
       id="g838">
      <path
         id="path840"
         style="fill:#027da3;fill-opacity:1;fill-rule:nonzero;stroke:none"
         d="M 0,0 C 0.654,0 0.654,1.014 0,1.014 -0.653,1.014 -0.653,0 0,0"
         inkscape:connector-curvature="0" />
    </g>
    <g
       transform="matrix(0.65726465,0,0,-0.65726465,44.480586,919.99178)"
       id="g842">
      <path
         id="path844"
         style="fill:#027da3;fill-opacity:1;fill-rule:nonzero;stroke:none"
         d="M 0,0 C 0.654,0 0.654,1.014 0,1.014 -0.652,1.014 -0.652,0 0,0"
         inkscape:connector-curvature="0" />
    </g>
    <g
       transform="matrix(0.65726465,0,0,-0.65726465,43.666695,920.2142)"
       id="g846">
      <path
         id="path848"
         style="fill:#027da3;fill-opacity:1;fill-rule:nonzero;stroke:none"
         d="M 0,0 C 0.654,0 0.654,1.014 0,1.014 -0.654,1.014 -0.654,0 0,0"
         inkscape:connector-curvature="0" />
    </g>
    <g
       transform="matrix(0.65726465,0,0,-0.65726465,41.667299,919.39965)"
       id="g850">
      <path
         id="path852"
         style="fill:#027da3;fill-opacity:1;fill-rule:nonzero;stroke:none"
         d="M 0,0 C 0.653,0 0.653,1.014 0,1.014 -0.654,1.014 -0.654,0 0,0"
         inkscape:connector-curvature="0" />
    </g>
    <g
       transform="matrix(0.65726465,0,0,-0.65726465,47.627637,921.51006)"
       id="g854">
      <path
         id="path856"
         style="fill:#027da3;fill-opacity:1;fill-rule:nonzero;stroke:none"
         d="M 0,0 C 0.654,0 0.654,1.014 0,1.014 -0.652,1.014 -0.652,0 0,0"
         inkscape:connector-curvature="0" />
    </g>
    <g
       transform="matrix(0.65726465,0,0,-0.65726465,44.333631,918.659)"
       id="g858">
      <path
         id="path860"
         style="fill:#027da3;fill-opacity:1;fill-rule:nonzero;stroke:none"
         d="M 0,0 C 0.652,0 0.652,1.014 0,1.014 -0.654,1.014 -0.654,0 0,0"
         inkscape:connector-curvature="0" />
    </g>
    <g
       transform="matrix(0.65726465,0,0,-0.65726465,49.109703,922.62053)"
       id="g862">
      <path
         id="path864"
         style="fill:#027da3;fill-opacity:1;fill-rule:nonzero;stroke:none"
         d="M 0,0 C 0.652,0 0.652,1.014 0,1.014 -0.654,1.014 -0.654,0 0,0"
         inkscape:connector-curvature="0" />
    </g>
    <g
       transform="matrix(0.65726465,0,0,-0.65726465,36.484306,920.51036)"
       id="g866">
      <path
         id="path868"
         style="fill:#027da3;fill-opacity:1;fill-rule:nonzero;stroke:none"
         d="M 0,0 C 0.654,0 0.654,1.014 0,1.014 -0.654,1.014 -0.654,0 0,0"
         inkscape:connector-curvature="0" />
    </g>
    <g
       transform="matrix(0.65726465,0,0,-0.65726465,39.298188,920.65864)"
       id="g870">
      <path
         id="path872"
         style="fill:#027da3;fill-opacity:1;fill-rule:nonzero;stroke:none"
         d="M 0,0 C 0.652,0 0.652,1.015 0,1.015 -0.654,1.015 -0.654,0 0,0"
         inkscape:connector-curvature="0" />
    </g>
    <g
       transform="matrix(0.65726465,0,0,-0.65726465,38.113337,920.36213)"
       id="g874">
      <path
         id="path876"
         style="fill:#027da3;fill-opacity:1;fill-rule:nonzero;stroke:none"
         d="M 0,0 C 0.653,0 0.653,1.014 0,1.014 -0.654,1.014 -0.654,0 0,0"
         inkscape:connector-curvature="0" />
    </g>
    <g
       transform="matrix(0.65726465,0,0,-0.65726465,33.392465,925.06442)"
       id="g878">
      <path
         id="path880"
         style="fill:#027da3;fill-opacity:1;fill-rule:nonzero;stroke:none"
         d="m 0,0 c 0.139,0.006 0.274,0.027 0.407,0.061 0.049,0.011 0.097,0.026 0.146,0.041 0.037,0.011 0.162,0.022 0.01,0.011 0.276,0.02 0.506,0.215 0.506,0.507 0,0.261 -0.23,0.527 -0.506,0.507 C 0.45,1.119 0.346,1.098 0.237,1.066 0.131,1.035 0.054,1.016 0,1.014 -0.275,1.003 -0.507,0.792 -0.507,0.507 -0.507,0.239 -0.275,-0.011 0,0"
         inkscape:connector-curvature="0" />
    </g>
    <g
       transform="matrix(0.65726465,0,0,-0.65726465,44.11088,921.54733)"
       id="g882">
      <path
         id="path884"
         style="fill:#027da3;fill-opacity:1;fill-rule:nonzero;stroke:none"
         d="M 0,0 C 0.654,0 0.654,1.015 0,1.015 -0.653,1.015 -0.653,0 0,0"
         inkscape:connector-curvature="0" />
    </g>
    <g
       transform="matrix(0.65726465,0,0,-0.65726465,41.815574,920.65864)"
       id="g886">
      <path
         id="path888"
         style="fill:#027da3;fill-opacity:1;fill-rule:nonzero;stroke:none"
         d="M 0,0 C 0.653,0 0.653,1.015 0,1.015 -0.654,1.015 -0.654,0 0,0"
         inkscape:connector-curvature="0" />
    </g>
    <g
       transform="matrix(0.65726465,0,0,-0.65726465,45.444006,922.2136)"
       id="g890">
      <path
         id="path892"
         style="fill:#027da3;fill-opacity:1;fill-rule:nonzero;stroke:none"
         d="m 0,0 -0.226,0 c -0.654,0 -0.654,-1.014 0,-1.014 l 0.226,0 C 0.653,-1.014 0.653,0 0,0"
         inkscape:connector-curvature="0" />
    </g>
    <g
       transform="matrix(0.65726465,0,0,-0.65726465,43.29633,923.17638)"
       id="g894">
      <path
         id="path896"
         style="fill:#027da3;fill-opacity:1;fill-rule:nonzero;stroke:none"
         d="M 0,0 C 0.654,0 0.654,1.015 0,1.015 -0.654,1.015 -0.654,0 0,0"
         inkscape:connector-curvature="0" />
    </g>
    <g
       transform="matrix(0.65726465,0,0,-0.65726465,46.517192,922.3984)"
       id="g898">
      <path
         id="path900"
         style="fill:#027da3;fill-opacity:1;fill-rule:nonzero;stroke:none"
         d="M 0,0 C 0.654,0 0.654,1.014 0,1.014 -0.654,1.014 -0.654,0 0,0"
         inkscape:connector-curvature="0" />
    </g>
    <g
       transform="matrix(0.65726465,0,0,-0.65726465,49.997999,922.10253)"
       id="g902">
      <path
         id="path904"
         style="fill:#027da3;fill-opacity:1;fill-rule:nonzero;stroke:none"
         d="M 0,0 C 0.653,0 0.653,1.015 0,1.015 -0.654,1.015 -0.654,0 0,0"
         inkscape:connector-curvature="0" />
    </g>
    <g
       transform="matrix(0.65726465,0,0,-0.65726465,50.887014,923.28709)"
       id="g906">
      <path
         id="path908"
         style="fill:#027da3;fill-opacity:1;fill-rule:nonzero;stroke:none"
         d="M 0,0 C 0.652,0 0.652,1.014 0,1.014 -0.654,1.014 -0.654,0 0,0"
         inkscape:connector-curvature="0" />
    </g>
    <g
       transform="matrix(0.65726465,0,0,-0.65726465,47.813117,919.01101)"
       id="g910">
      <path
         id="path912"
         style="fill:#027da3;fill-opacity:1;fill-rule:nonzero;stroke:none"
         d="M 0,0 C 0.654,0 0.654,1.015 0,1.015 -0.653,1.015 -0.653,0 0,0"
         inkscape:connector-curvature="0" />
    </g>
    <g
       transform="matrix(0.65726465,0,0,-0.65726465,39.815523,921.91738)"
       id="g914">
      <path
         id="path916"
         style="fill:#027da3;fill-opacity:1;fill-rule:nonzero;stroke:none"
         d="M 0,0 C 0.654,0 0.654,1.014 0,1.014 -0.652,1.014 -0.652,0 0,0"
         inkscape:connector-curvature="0" />
    </g>
    <g
       transform="matrix(0.65726465,0,0,-0.65726465,37.964402,923.95331)"
       id="g918">
      <path
         id="path920"
         style="fill:#027da3;fill-opacity:1;fill-rule:nonzero;stroke:none"
         d="M 0,0 C 0.654,0 0.654,1.014 0,1.014 -0.652,1.014 -0.652,0 0,0"
         inkscape:connector-curvature="0" />
    </g>
    <g
       transform="matrix(0.65726465,0,0,-0.65726465,38.039522,921.91738)"
       id="g922">
      <path
         id="path924"
         style="fill:#027da3;fill-opacity:1;fill-rule:nonzero;stroke:none"
         d="M 0,0 C 0.652,0 0.652,1.014 0,1.014 -0.654,1.014 -0.654,0 0,0"
         inkscape:connector-curvature="0" />
    </g>
    <g
       transform="matrix(0.65726465,0,0,-0.65726465,36.705741,918.659)"
       id="g926">
      <path
         id="path928"
         style="fill:#027da3;fill-opacity:1;fill-rule:nonzero;stroke:none"
         d="M 0,0 C 0.654,0 0.654,1.014 0,1.014 -0.652,1.014 -0.652,0 0,0"
         inkscape:connector-curvature="0" />
    </g>
    <g
       transform="matrix(0.65726465,0,0,-0.65726465,35.669171,920.36213)"
       id="g930">
      <path
         id="path932"
         style="fill:#027da3;fill-opacity:1;fill-rule:nonzero;stroke:none"
         d="M 0,0 C 0.654,0 0.654,1.014 0,1.014 -0.653,1.014 -0.653,0 0,0"
         inkscape:connector-curvature="0" />
    </g>
    <g
       transform="matrix(0.65726465,0,0,-0.65726465,34.411095,923.0281)"
       id="g934">
      <path
         id="path936"
         style="fill:#027da3;fill-opacity:1;fill-rule:nonzero;stroke:none"
         d="M 0,0 C 0.653,0 0.653,1.014 0,1.014 -0.654,1.014 -0.654,0 0,0"
         inkscape:connector-curvature="0" />
    </g>
    <g
       transform="matrix(0.65726465,0,0,-0.65726465,36.705741,921.84324)"
       id="g938">
      <path
         id="path940"
         style="fill:#027da3;fill-opacity:1;fill-rule:nonzero;stroke:none"
         d="M 0,0 C 0.654,0 0.654,1.014 0,1.014 -0.652,1.014 -0.652,0 0,0"
         inkscape:connector-curvature="0" />
    </g>
    <g
       transform="matrix(0.65726465,0,0,-0.65726465,32.744804,923.0281)"
       id="g942">
      <path
         id="path944"
         style="fill:#027da3;fill-opacity:1;fill-rule:nonzero;stroke:none"
         d="M 0,0 C 0.653,0 0.653,1.014 0,1.014 -0.654,1.014 -0.654,0 0,0"
         inkscape:connector-curvature="0" />
    </g>
    <g
       transform="matrix(0.65726465,0,0,-0.65726465,46.962027,920.51036)"
       id="g946">
      <path
         id="path948"
         style="fill:#027da3;fill-opacity:1;fill-rule:nonzero;stroke:none"
         d="M 0,0 C 0.653,0 0.653,1.014 0,1.014 -0.654,1.014 -0.654,0 0,0"
         inkscape:connector-curvature="0" />
    </g>
    <g
       transform="matrix(0.65726465,0,0,-0.65726465,34.89248,930.87741)"
       id="g950">
      <path
         id="path952"
         style="fill:#027da3;fill-opacity:1;fill-rule:nonzero;stroke:none"
         d="M 0,0 C 0.652,0 0.652,1.014 0,1.014 -0.654,1.014 -0.654,0 0,0"
         inkscape:connector-curvature="0" />
    </g>
    <g
       transform="matrix(0.65726465,0,0,-0.65726465,41.186574,932.69166)"
       id="g954">
      <path
         id="path956"
         style="fill:#027da3;fill-opacity:1;fill-rule:nonzero;stroke:none"
         d="m 0,0 c 0.013,-0.33 0.144,-0.578 0.373,-0.809 0.195,-0.195 0.523,-0.195 0.718,0 0.195,0.196 0.195,0.521 0,0.717 C 1.073,-0.075 0.961,0.055 1.036,-0.045 1.021,-0.023 1.006,0 0.994,0.025 1.013,-0.008 1.018,-0.117 1.013,0 1.002,0.276 0.791,0.507 0.506,0.507 0.238,0.507 -0.012,0.276 0,0"
         inkscape:connector-curvature="0" />
    </g>
    <g
       transform="matrix(0.65726465,0,0,-0.65726465,42.111479,934.57995)"
       id="g958">
      <path
         id="path960"
         style="fill:#027da3;fill-opacity:1;fill-rule:nonzero;stroke:none"
         d="m 0,0 0.226,0 c 0.654,0 0.654,1.015 0,1.015 L 0,1.015 C -0.653,1.015 -0.653,0 0,0"
         inkscape:connector-curvature="0" />
    </g>
    <g
       transform="matrix(0.65726465,0,0,-0.65726465,44.222545,933.28369)"
       id="g962">
      <path
         id="path964"
         style="fill:#027da3;fill-opacity:1;fill-rule:nonzero;stroke:none"
         d="m 0,0 0,0.113 c 0,0.654 -1.015,0.654 -1.015,0 L -1.015,0 C -1.015,-0.654 0,-0.654 0,0"
         inkscape:connector-curvature="0" />
    </g>
    <g
       transform="matrix(0.65726465,0,0,-0.65726465,44.259156,935.46859)"
       id="g966">
      <path
         id="path968"
         style="fill:#027da3;fill-opacity:1;fill-rule:nonzero;stroke:none"
         d="M 0,0 C 0.654,0 0.654,1.015 0,1.015 -0.653,1.015 -0.653,0 0,0"
         inkscape:connector-curvature="0" />
    </g>
    <g
       transform="matrix(0.65726465,0,0,-0.65726465,46.333027,933.98718)"
       id="g970">
      <path
         id="path972"
         style="fill:#027da3;fill-opacity:1;fill-rule:nonzero;stroke:none"
         d="M 0,0 C 0.121,0.016 0.209,0.038 0.322,0.087 0.365,0.119 0.407,0.151 0.449,0.184 0.524,0.256 0.343,0.133 0.442,0.177 0.358,0.154 0.272,0.13 0.187,0.108 0.2,0.109 0.212,0.111 0.225,0.113 0.498,0.148 0.731,0.316 0.731,0.62 0.731,0.869 0.499,1.162 0.225,1.126 0.103,1.11 0.014,1.089 -0.098,1.04 -0.141,1.008 -0.184,0.976 -0.225,0.942 -0.3,0.87 -0.118,0.993 -0.22,0.95 -0.134,0.973 -0.048,0.996 0.036,1.019 0.024,1.017 0.012,1.016 0,1.014 -0.274,0.979 -0.507,0.81 -0.507,0.507 -0.507,0.257 -0.276,-0.036 0,0"
         inkscape:connector-curvature="0" />
    </g>
    <g
       transform="matrix(0.65726465,0,0,-0.65726465,48.628318,932.95026)"
       id="g974">
      <path
         id="path976"
         style="fill:#027da3;fill-opacity:1;fill-rule:nonzero;stroke:none"
         d="M 0,0 C 0.653,0 0.653,1.014 0,1.014 -0.654,1.014 -0.654,0 0,0"
         inkscape:connector-curvature="0" />
    </g>
    <g
       transform="matrix(0.65726465,0,0,-0.65726465,50.608394,930.72913)"
       id="g978">
      <path
         id="path980"
         style="fill:#027da3;fill-opacity:1;fill-rule:nonzero;stroke:none"
         d="M 0,0 C 0.654,0 0.654,1.014 0,1.014 -0.652,1.014 -0.652,0 0,0"
         inkscape:connector-curvature="0" />
    </g>
    <g
       transform="matrix(0.65726465,0,0,-0.65726465,47.813117,936.06072)"
       id="g982">
      <path
         id="path984"
         style="fill:#027da3;fill-opacity:1;fill-rule:nonzero;stroke:none"
         d="M 0,0 C 0.654,0 0.654,1.014 0,1.014 -0.653,1.014 -0.653,0 0,0"
         inkscape:connector-curvature="0" />
    </g>
    <g
       transform="matrix(0.65726465,0,0,-0.65726465,45.814376,935.24622)"
       id="g986">
      <path
         id="path988"
         style="fill:#027da3;fill-opacity:1;fill-rule:nonzero;stroke:none"
         d="M 0,0 C 0.654,0 0.654,1.014 0,1.014 -0.654,1.014 -0.654,0 0,0"
         inkscape:connector-curvature="0" />
    </g>
    <g
       transform="matrix(0.65726465,0,0,-0.65726465,44.480586,930.87741)"
       id="g990">
      <path
         id="path992"
         style="fill:#027da3;fill-opacity:1;fill-rule:nonzero;stroke:none"
         d="M 0,0 C 0.654,0 0.654,1.014 0,1.014 -0.652,1.014 -0.652,0 0,0"
         inkscape:connector-curvature="0" />
    </g>
    <g
       transform="matrix(0.65726465,0,0,-0.65726465,48.480043,934.50581)"
       id="g994">
      <path
         id="path996"
         style="fill:#027da3;fill-opacity:1;fill-rule:nonzero;stroke:none"
         d="M 0,0 C 0.653,0 0.653,1.015 0,1.015 -0.654,1.015 -0.654,0 0,0"
         inkscape:connector-curvature="0" />
    </g>
    <g
       transform="matrix(0.65726465,0,0,-0.65726465,45.962656,931.98813)"
       id="g998">
      <path
         id="path1000"
         style="fill:#027da3;fill-opacity:1;fill-rule:nonzero;stroke:none"
         d="M 0,0 C 0.654,0 0.654,1.015 0,1.015 -0.654,1.015 -0.654,0 0,0"
         inkscape:connector-curvature="0" />
    </g>
    <g
       transform="matrix(0.65726465,0,0,-0.65726465,40.630724,936.35693)"
       id="g1002">
      <path
         id="path1004"
         style="fill:#027da3;fill-opacity:1;fill-rule:nonzero;stroke:none"
         d="M 0,0 C 0.654,0 0.654,1.014 0,1.014 -0.654,1.014 -0.654,0 0,0"
         inkscape:connector-curvature="0" />
    </g>
    <g
       transform="matrix(0.65726465,0,0,-0.65726465,43.44461,936.50491)"
       id="g1006">
      <path
         id="path1008"
         style="fill:#027da3;fill-opacity:1;fill-rule:nonzero;stroke:none"
         d="M 0,0 C 0.654,0 0.654,1.014 0,1.014 -0.654,1.014 -0.654,0 0,0"
         inkscape:connector-curvature="0" />
    </g>
    <g
       transform="matrix(0.65726465,0,0,-0.65726465,42.259759,936.20865)"
       id="g1010">
      <path
         id="path1012"
         style="fill:#027da3;fill-opacity:1;fill-rule:nonzero;stroke:none"
         d="M 0,0 C 0.654,0 0.654,1.014 0,1.014 -0.654,1.014 -0.654,0 0,0"
         inkscape:connector-curvature="0" />
    </g>
    <g
       transform="matrix(0.65726465,0,0,-0.65726465,49.812518,925.50886)"
       id="g1014">
      <path
         id="path1016"
         style="fill:#027da3;fill-opacity:1;fill-rule:nonzero;stroke:none"
         d="M 0,0 C 0.139,0.005 0.274,0.027 0.409,0.061 0.457,0.073 0.504,0.088 0.553,0.102 0.59,0.113 0.715,0.124 0.563,0.113 0.839,0.133 1.071,0.329 1.071,0.62 1.071,0.881 0.839,1.147 0.563,1.126 0.45,1.119 0.346,1.098 0.237,1.066 0.131,1.036 0.055,1.017 0,1.014 -0.275,1.003 -0.506,0.792 -0.506,0.507 -0.506,0.239 -0.275,-0.01 0,0"
         inkscape:connector-curvature="0" />
    </g>
    <g
       transform="matrix(0.65726465,0,0,-0.65726465,33.077964,928.2114)"
       id="g1018">
      <path
         id="path1020"
         style="fill:#027da3;fill-opacity:1;fill-rule:nonzero;stroke:none"
         d="M 0,0 C 0.654,0 0.654,1.014 0,1.014 -0.654,1.014 -0.654,0 0,0"
         inkscape:connector-curvature="0" />
    </g>
    <g
       transform="matrix(0.65726465,0,0,-0.65726465,45.962656,936.50491)"
       id="g1022">
      <path
         id="path1024"
         style="fill:#027da3;fill-opacity:1;fill-rule:nonzero;stroke:none"
         d="M 0,0 C 0.654,0 0.654,1.014 0,1.014 -0.654,1.014 -0.654,0 0,0"
         inkscape:connector-curvature="0" />
    </g>
    <g
       transform="matrix(0.65726465,0,0,-0.65726465,51.9974,925.8417)"
       id="g1026">
      <path
         id="path1028"
         style="fill:#027da3;fill-opacity:1;fill-rule:nonzero;stroke:none"
         d="m 0,0 -0.226,0 c -0.654,0 -0.654,-1.014 0,-1.014 l 0.226,0 C 0.653,-1.014 0.653,0 0,0"
         inkscape:connector-curvature="0" />
    </g>
    <g
       transform="matrix(0.65726465,0,0,-0.65726465,49.849719,926.80447)"
       id="g1030">
      <path
         id="path1032"
         style="fill:#027da3;fill-opacity:1;fill-rule:nonzero;stroke:none"
         d="M 0,0 C 0.654,0 0.654,1.014 0,1.014 -0.654,1.014 -0.654,0 0,0"
         inkscape:connector-curvature="0" />
    </g>
    <g
       transform="matrix(0.65726465,0,0,-0.65726465,43.37021,931.76576)"
       id="g1034">
      <path
         id="path1036"
         style="fill:#027da3;fill-opacity:1;fill-rule:nonzero;stroke:none"
         d="M 0,0 C 0.654,0 0.654,1.014 0,1.014 -0.652,1.014 -0.652,0 0,0"
         inkscape:connector-curvature="0" />
    </g>
    <g
       transform="matrix(0.65726465,0,0,-0.65726465,46.850947,931.46954)"
       id="g1038">
      <path
         id="path1040"
         style="fill:#027da3;fill-opacity:1;fill-rule:nonzero;stroke:none"
         d="M 0,0 C 0.653,0 0.653,1.014 0,1.014 -0.654,1.014 -0.654,0 0,0"
         inkscape:connector-curvature="0" />
    </g>
    <g
       transform="matrix(0.65726465,0,0,-0.65726465,47.739962,932.65439)"
       id="g1042">
      <path
         id="path1044"
         style="fill:#027da3;fill-opacity:1;fill-rule:nonzero;stroke:none"
         d="M 0,0 C 0.652,0 0.652,1.014 0,1.014 -0.654,1.014 -0.654,0 0,0"
         inkscape:connector-curvature="0" />
    </g>
    <g
       transform="matrix(0.65726465,0,0,-0.65726465,48.776533,930.58085)"
       id="g1046">
      <path
         id="path1048"
         style="fill:#027da3;fill-opacity:1;fill-rule:nonzero;stroke:none"
         d="M 0,0 C 0.653,0 0.653,1.014 0,1.014 -0.654,1.014 -0.654,0 0,0"
         inkscape:connector-curvature="0" />
    </g>
    <g
       transform="matrix(0.65726465,0,0,-0.65726465,46.368977,925.54578)"
       id="g1050">
      <path
         id="path1052"
         style="fill:#027da3;fill-opacity:1;fill-rule:nonzero;stroke:none"
         d="M 0,0 C 0.654,0 0.654,1.014 0,1.014 -0.652,1.014 -0.652,0 0,0"
         inkscape:connector-curvature="0" />
    </g>
    <g
       transform="matrix(0.65726465,0,0,-0.65726465,43.999865,926.65649)"
       id="g1054">
      <path
         id="path1056"
         style="fill:#027da3;fill-opacity:1;fill-rule:nonzero;stroke:none"
         d="M 0,0 C 0.654,0 0.654,1.014 0,1.014 -0.654,1.014 -0.654,0 0,0"
         inkscape:connector-curvature="0" />
    </g>
    <g
       transform="matrix(0.65726465,0,0,-0.65726465,44.592921,925.54578)"
       id="g1058">
      <path
         id="path1060"
         style="fill:#027da3;fill-opacity:1;fill-rule:nonzero;stroke:none"
         d="M 0,0 C 0.652,0 0.652,1.014 0,1.014 -0.654,1.014 -0.654,0 0,0"
         inkscape:connector-curvature="0" />
    </g>
    <g
       transform="matrix(0.65726465,0,0,-0.65726465,40.852819,934.50581)"
       id="g1062">
      <path
         id="path1064"
         style="fill:#027da3;fill-opacity:1;fill-rule:nonzero;stroke:none"
         d="M 0,0 C 0.654,0 0.654,1.015 0,1.015 -0.653,1.015 -0.653,0 0,0"
         inkscape:connector-curvature="0" />
    </g>
    <g
       transform="matrix(0.65726465,0,0,-0.65726465,39.815523,936.20865)"
       id="g1066">
      <path
         id="path1068"
         style="fill:#027da3;fill-opacity:1;fill-rule:nonzero;stroke:none"
         d="M 0,0 C 0.654,0 0.654,1.014 0,1.014 -0.652,1.014 -0.652,0 0,0"
         inkscape:connector-curvature="0" />
    </g>
    <g
       transform="matrix(0.65726465,0,0,-0.65726465,40.852819,927.10069)"
       id="g1070">
      <path
         id="path1072"
         style="fill:#027da3;fill-opacity:1;fill-rule:nonzero;stroke:none"
         d="M 0,0 C 0.654,0 0.654,1.014 0,1.014 -0.653,1.014 -0.653,0 0,0"
         inkscape:connector-curvature="0" />
    </g>
    <g
       transform="matrix(0.65726465,0,0,-0.65726465,43.259125,925.47164)"
       id="g1074">
      <path
         id="path1076"
         style="fill:#027da3;fill-opacity:1;fill-rule:nonzero;stroke:none"
         d="M 0,0 C 0.654,0 0.654,1.014 0,1.014 -0.654,1.014 -0.654,0 0,0"
         inkscape:connector-curvature="0" />
    </g>
    <g
       transform="matrix(0.65726465,0,0,-0.65726465,38.113337,934.43167)"
       id="g1078">
      <path
         id="path1080"
         style="fill:#027da3;fill-opacity:1;fill-rule:nonzero;stroke:none"
         d="M 0,0 C 0.653,0 0.653,1.014 0,1.014 -0.654,1.014 -0.654,0 0,0"
         inkscape:connector-curvature="0" />
    </g>
    <g
       transform="matrix(0.65726465,0,0,-0.65726465,40.408638,932.20985)"
       id="g1082">
      <path
         id="path1084"
         style="fill:#027da3;fill-opacity:1;fill-rule:nonzero;stroke:none"
         d="M 0,0 C 0.654,0 0.654,1.014 0,1.014 -0.654,1.014 -0.654,0 0,0"
         inkscape:connector-curvature="0" />
    </g>
    <g
       transform="matrix(0.65726465,0,0,-0.65726465,39.741708,933.83895)"
       id="g1086">
      <path
         id="path1088"
         style="fill:#027da3;fill-opacity:1;fill-rule:nonzero;stroke:none"
         d="M 0,0 C 0.654,0 0.654,1.014 0,1.014 -0.653,1.014 -0.653,0 0,0"
         inkscape:connector-curvature="0" />
    </g>
    <g
       transform="matrix(0.65726465,0,0,-0.65726465,36.631926,929.87737)"
       id="g1090">
      <path
         id="path1092"
         style="fill:#027da3;fill-opacity:1;fill-rule:nonzero;stroke:none"
         d="m 0,0 c 0.014,-0.331 0.145,-0.579 0.374,-0.809 0.195,-0.196 0.522,-0.195 0.718,0 0.194,0.195 0.194,0.521 0,0.717 C 1.074,-0.075 0.962,0.055 1.037,-0.045 1.021,-0.024 1.008,0 0.995,0.024 1.014,-0.008 1.019,-0.117 1.015,0 1.003,0.276 0.792,0.507 0.507,0.507 0.239,0.507 -0.012,0.276 0,0"
         inkscape:connector-curvature="0" />
    </g>
    <g
       transform="matrix(0.65726465,0,0,-0.65726465,37.558147,931.76576)"
       id="g1094">
      <path
         id="path1096"
         style="fill:#027da3;fill-opacity:1;fill-rule:nonzero;stroke:none"
         d="m 0,0 0.225,0 c 0.654,0 0.654,1.014 0,1.014 L 0,1.014 C -0.654,1.014 -0.654,0 0,0"
         inkscape:connector-curvature="0" />
    </g>
    <g
       transform="matrix(0.65726465,0,0,-0.65726465,36.299416,934.57995)"
       id="g1098">
      <path
         id="path1100"
         style="fill:#027da3;fill-opacity:1;fill-rule:nonzero;stroke:none"
         d="M 0,0 C 0.652,0 0.652,1.015 0,1.015 -0.654,1.015 -0.654,0 0,0"
         inkscape:connector-curvature="0" />
    </g>
    <g
       transform="matrix(0.65726465,0,0,-0.65726465,37.705767,933.3948)"
       id="g1102">
      <path
         id="path1104"
         style="fill:#027da3;fill-opacity:1;fill-rule:nonzero;stroke:none"
         d="M 0,0 C 0.654,0 0.654,1.014 0,1.014 -0.653,1.014 -0.653,0 0,0"
         inkscape:connector-curvature="0" />
    </g>
    <g
       transform="matrix(0.65726465,0,0,-0.65726465,36.299416,931.69162)"
       id="g1106">
      <path
         id="path1108"
         style="fill:#027da3;fill-opacity:1;fill-rule:nonzero;stroke:none"
         d="M 0,0 C 0.652,0 0.652,1.014 0,1.014 -0.654,1.014 -0.654,0 0,0"
         inkscape:connector-curvature="0" />
    </g>
    <g
       transform="matrix(0.65726465,0,0,-0.65726465,35.262191,933.3948)"
       id="g1110">
      <path
         id="path1112"
         style="fill:#027da3;fill-opacity:1;fill-rule:nonzero;stroke:none"
         d="M 0,0 C 0.653,0 0.653,1.014 0,1.014 -0.654,1.014 -0.654,0 0,0"
         inkscape:connector-curvature="0" />
    </g>
    <g
       transform="matrix(0.65726465,0,0,-0.65726465,33.55869,931.61782)"
       id="g1114">
      <path
         id="path1116"
         style="fill:#027da3;fill-opacity:1;fill-rule:nonzero;stroke:none"
         d="M 0,0 C 0.654,0 0.654,1.014 0,1.014 -0.652,1.014 -0.652,0 0,0"
         inkscape:connector-curvature="0" />
    </g>
    <g
       transform="matrix(0.65726465,0,0,-0.65726465,35.854646,929.3963)"
       id="g1118">
      <path
         id="path1120"
         style="fill:#027da3;fill-opacity:1;fill-rule:nonzero;stroke:none"
         d="M 0,0 C 0.654,0 0.654,1.014 0,1.014 -0.654,1.014 -0.654,0 0,0"
         inkscape:connector-curvature="0" />
    </g>
    <g
       transform="matrix(0.65726465,0,0,-0.65726465,34.411095,929.10008)"
       id="g1122">
      <path
         id="path1124"
         style="fill:#027da3;fill-opacity:1;fill-rule:nonzero;stroke:none"
         d="M 0,0 C 0.653,0 0.653,1.014 0,1.014 -0.654,1.014 -0.654,0 0,0"
         inkscape:connector-curvature="0" />
    </g>
  </g>
</svg>
