<?xml version="1.0" encoding="UTF-8" standalone="no"?>
<!-- Created with Inkscape (http://www.inkscape.org/) -->

<svg
   xmlns:dc="http://purl.org/dc/elements/1.1/"
   xmlns:cc="http://creativecommons.org/ns#"
   xmlns:rdf="http://www.w3.org/1999/02/22-rdf-syntax-ns#"
   xmlns:svg="http://www.w3.org/2000/svg"
   xmlns="http://www.w3.org/2000/svg"
   xmlns:sodipodi="http://sodipodi.sourceforge.net/DTD/sodipodi-0.dtd"
   xmlns:inkscape="http://www.inkscape.org/namespaces/inkscape"
   width="150.3595"
   height="100.66391"
   viewBox="0 0 150.3595 100.66391"
   id="svg9844"
   version="1.1"
   inkscape:version="0.91 r13725"
   sodipodi:docname="books_right.svg">
  <defs
     id="defs9846">
    <clipPath
       id="clipPath1826-5"
       clipPathUnits="userSpaceOnUse">
      <path
         inkscape:connector-curvature="0"
         id="path1824-2"
         d="m 70.5527,574.814 202.2373,0 0,-51.566 -202.2373,0 z" />
    </clipPath>
    <linearGradient
       id="linearGradient1836-3"
       spreadMethod="pad"
       gradientTransform="matrix(0,98.73317,98.73317,0,171.67139,522.83057)"
       gradientUnits="userSpaceOnUse"
       y2="0"
       x2="1"
       y1="0"
       x1="0">
      <stop
         id="stop1832-6"
         offset="0"
         style="stop-opacity:1;stop-color:#ffffff" />
      <stop
         id="stop1834-5"
         offset="1"
         style="stop-opacity:1;stop-color:#231f20" />
    </linearGradient>
    <clipPath
       id="clipPath1304-6"
       clipPathUnits="userSpaceOnUse">
      <path
         inkscape:connector-curvature="0"
         id="path1302-7"
         d="m 241.93,643.216 16.903,0 0,-56.38 -16.903,0 z" />
    </clipPath>
    <clipPath
       id="clipPath1280-3"
       clipPathUnits="userSpaceOnUse">
      <path
         inkscape:connector-curvature="0"
         id="path1278-2"
         d="m 225.027,643.216 16.903,0 0,-56.38 -16.903,0 z" />
    </clipPath>
    <clipPath
       id="clipPath1256-5"
       clipPathUnits="userSpaceOnUse">
      <path
         inkscape:connector-curvature="0"
         id="path1254-4"
         d="m 199.37,650 11.807,0 0,-63.164 -11.807,0 z" />
    </clipPath>
    <clipPath
       id="clipPath1240-8"
       clipPathUnits="userSpaceOnUse">
      <path
         inkscape:connector-curvature="0"
         id="path1238-9"
         d="m 188.744,643.216 10.76,0 0,-56.38 -10.76,0 z" />
    </clipPath>
    <clipPath
       id="clipPath1224-4"
       clipPathUnits="userSpaceOnUse">
      <path
         inkscape:connector-curvature="0"
         id="path1222-4"
         d="m 211.187,654.81 13.876,0 0,-67.974 -13.876,0 z" />
    </clipPath>
    <clipPath
       id="clipPath1198-8"
       clipPathUnits="userSpaceOnUse">
      <path
         inkscape:connector-curvature="0"
         id="path1196-1"
         d="m 168.542,654.81 20.202,0 0,-67.974 -20.202,0 z" />
    </clipPath>
    <clipPath
       id="clipPath1510-4"
       clipPathUnits="userSpaceOnUse">
      <path
         inkscape:connector-curvature="0"
         id="path1508-9"
         d="m 653.895,624.349 77.357,0 0,-10.384 -77.357,0 z" />
    </clipPath>
    <clipPath
       id="clipPath1494-1"
       clipPathUnits="userSpaceOnUse">
      <path
         inkscape:connector-curvature="0"
         id="path1492-4"
         d="m 662.202,614.082 69.05,0 0,-9.462 -69.05,0 z" />
    </clipPath>
    <clipPath
       id="clipPath1478-6"
       clipPathUnits="userSpaceOnUse">
      <path
         inkscape:connector-curvature="0"
         id="path1476-2"
         d="m 648.004,604.62 83.248,0 0,-17.77 -83.248,0 z" />
    </clipPath>
    <clipPath
       id="clipPath1320-1"
       clipPathUnits="userSpaceOnUse">
      <path
         inkscape:connector-curvature="0"
         id="path1318-3"
         d="m 517.567,574.814 228.766,0 0,-51.566 -228.766,0 z" />
    </clipPath>
    <linearGradient
       id="linearGradient1330-5"
       spreadMethod="pad"
       gradientTransform="matrix(0,98.73317,98.73317,0,631.9502,522.83057)"
       gradientUnits="userSpaceOnUse"
       y2="0"
       x2="1"
       y1="0"
       x1="0">
      <stop
         id="stop1326-0"
         offset="0"
         style="stop-opacity:1;stop-color:#ffffff" />
      <stop
         id="stop1328-8"
         offset="1"
         style="stop-opacity:1;stop-color:#231f20" />
    </linearGradient>
  </defs>
  <sodipodi:namedview
     id="base"
     pagecolor="#ffffff"
     bordercolor="#666666"
     borderopacity="1.0"
     inkscape:pageopacity="0.0"
     inkscape:pageshadow="2"
     inkscape:zoom="1.979899"
     inkscape:cx="290.02388"
     inkscape:cy="77.807957"
     inkscape:document-units="px"
     inkscape:current-layer="layer1"
     showgrid="false"
     units="px"
     inkscape:window-width="1680"
     inkscape:window-height="1027"
     inkscape:window-x="1912"
     inkscape:window-y="19"
     inkscape:window-maximized="1"
     fit-margin-top="0"
     fit-margin-left="0"
     fit-margin-right="0"
     fit-margin-bottom="0" />
  <metadata
     id="metadata9849">
    <rdf:RDF>
      <cc:Work
         rdf:about="">
        <dc:format>image/svg+xml</dc:format>
        <dc:type
           rdf:resource="http://purl.org/dc/dcmitype/StillImage" />
        <dc:title></dc:title>
      </cc:Work>
    </rdf:RDF>
  </metadata>
  <g
     inkscape:label="Capa 1"
     inkscape:groupmode="layer"
     id="layer1"
     transform="translate(-4.74244e-6,-951.69837)">
    <g
       transform="matrix(0.65726332,0,0,-0.65726332,-340.1778,1396.274)"
       id="g1314">
      <g
         id="g1316" />
      <g
         id="g1344">
        <g
           style="opacity:0.30000299"
           id="g1342"
           clip-path="url(#clipPath1320-1)">
          <g
             id="g1340">
            <g
               id="g1338">
              <g
                 id="g1336">
                <g
                   id="g1334">
                  <path
                     id="path1332"
                     style="fill:url(#linearGradient1330-5);stroke:none"
                     d="m 746.333,574.814 -165.178,0 -63.588,-51.566 165.178,0 z"
                     inkscape:connector-curvature="0" />
                </g>
              </g>
            </g>
          </g>
        </g>
      </g>
    </g>
    <path
       id="path1404"
       style="fill:#fffffb;fill-opacity:1;fill-rule:nonzero;stroke:none"
       d="m 150.3595,1018.4698 -108.565443,0 0,-7.9017 108.565443,0 z"
       inkscape:connector-curvature="0" />
    <path
       id="path1406"
       style="fill:#231f20;fill-opacity:1;fill-rule:nonzero;stroke:none"
       d="m 68.32975,1006.5871 -2.622481,0 0,-30.07309 2.622481,0 z"
       inkscape:connector-curvature="0" />
    <g
       transform="matrix(0.65726332,0,0,-0.65726332,73.089983,977.29806)"
       id="g1408">
      <path
         id="path1410"
         style="fill:#43507c;fill-opacity:1;fill-rule:nonzero;stroke:none"
         d="m 0,0 c 0,-5.143 -4.165,-9.31 -9.303,-9.31 -5.143,0 -9.307,4.167 -9.307,9.31 0,5.138 4.164,9.304 9.307,9.304 C -4.165,9.304 0,5.138 0,0"
         inkscape:connector-curvature="0" />
    </g>
    <g
       transform="matrix(0.65726332,0,0,-0.65726332,67.234951,977.15491)"
       id="g1412">
      <path
         id="path1414"
         style="fill:#43507c;fill-opacity:1;fill-rule:nonzero;stroke:none"
         d="M 0,0 C -0.737,0.195 -1.173,0.949 -0.979,1.686 L 6.94,31.442 c 0.197,0.737 0.951,1.175 1.686,0.979 0.737,-0.195 1.176,-0.95 0.978,-1.687 L 1.685,0.977 C 1.49,0.241 0.735,-0.195 0,0"
         inkscape:connector-curvature="0" />
    </g>
    <g
       transform="matrix(0.65726332,0,0,-0.65726332,66.216978,976.09139)"
       id="g1416">
      <path
         id="path1418"
         style="fill:#43507c;fill-opacity:1;fill-rule:nonzero;stroke:none"
         d="m 0,0 c -0.417,-0.301 -0.993,-0.203 -1.294,0.212 l -12.045,16.811 c -0.298,0.418 -0.202,0.994 0.213,1.294 0.42,0.296 0.994,0.2 1.295,-0.213 L 0.211,1.289 C 0.511,0.877 0.418,0.296 0,0"
         inkscape:connector-curvature="0" />
    </g>
    <g
       transform="matrix(0.65726332,0,0,-0.65726332,68.729829,981.05425)"
       id="g1420">
      <path
         id="path1422"
         style="fill:#43507c;fill-opacity:1;fill-rule:nonzero;stroke:none"
         d="m 0,0 c 0.461,0.215 1.014,0.016 1.233,-0.445 l 8.822,-18.703 c 0.216,-0.466 0.021,-1.017 -0.442,-1.232 -0.463,-0.221 -1.014,-0.023 -1.232,0.439 L -0.442,-1.236 C -0.66,-0.771 -0.463,-0.221 0,0"
         inkscape:connector-curvature="0" />
    </g>
    <g
       transform="matrix(0.65726332,0,0,-0.65726332,64.621935,978.17295)"
       id="g1424">
      <path
         id="path1426"
         style="fill:#43507c;fill-opacity:1;fill-rule:nonzero;stroke:none"
         d="m 0,0 c 0.064,-0.55 -0.327,-1.044 -0.876,-1.113 l -22.145,-2.691 c -0.548,-0.065 -1.045,0.324 -1.113,0.872 -0.065,0.547 0.323,1.046 0.871,1.111 L -1.116,0.873 C -0.565,0.937 -0.065,0.547 0,0"
         inkscape:connector-curvature="0" />
    </g>
    <g
       transform="matrix(0.65726332,0,0,-0.65726332,77.470051,956.4563)"
       id="g1428">
      <path
         id="path1430"
         style="fill:#04f9d3;fill-opacity:1;fill-rule:nonzero;stroke:none"
         d="m 0,0 c 0,-4 -3.241,-7.238 -7.237,-7.238 -3.997,0 -7.239,3.238 -7.239,7.238 0,3.998 3.242,7.239 7.239,7.239 C -3.241,7.239 0,3.998 0,0"
         inkscape:connector-curvature="0" />
    </g>
    <g
       transform="matrix(0.65726332,0,0,-0.65726332,56.910007,960.69512)"
       id="g1432">
      <path
         id="path1434"
         style="fill:#ebee49;fill-opacity:1;fill-rule:nonzero;stroke:none"
         d="M 0,0 C 2.41,0.096 4.442,-1.78 4.537,-4.19 4.633,-6.599 2.755,-8.628 0.346,-8.725 -2.064,-8.817 -4.094,-6.944 -4.188,-4.533 -4.281,-2.123 -2.408,-0.094 0,0"
         inkscape:connector-curvature="0" />
    </g>
    <g
       transform="matrix(0.65726332,0,0,-0.65726332,77.711396,994.90266)"
       id="g1436">
      <path
         id="path1438"
         style="fill:#fda833;fill-opacity:1;fill-rule:nonzero;stroke:none"
         d="M 0,0 C -0.298,-2.074 -2.218,-3.515 -4.288,-3.218 -6.363,-2.921 -7.804,-1 -7.508,1.071 -7.212,3.146 -5.293,4.584 -3.22,4.291 -1.145,3.995 0.297,2.073 0,0"
         inkscape:connector-curvature="0" />
    </g>
    <g
       transform="matrix(0.65726332,0,0,-0.65726332,51.115961,980.39699)"
       id="g1440">
      <path
         id="path1442"
         style="fill:#ca1c1d;fill-opacity:1;fill-rule:nonzero;stroke:none"
         d="m 0,0 c 0,-2.728 -2.214,-4.937 -4.941,-4.937 -2.728,0 -4.944,2.209 -4.944,4.937 0,2.731 2.216,4.942 4.944,4.942 C -2.214,4.942 0,2.731 0,0"
         inkscape:connector-curvature="0" />
    </g>
    <g
       transform="matrix(0.65726332,0,0,-0.65726332,80.455932,1010.5679)"
       id="g1444">
      <path
         id="path1446"
         style="fill:#f76609;fill-opacity:1;fill-rule:nonzero;stroke:none"
         d="m 0,0 -5.984,0 0,3.064 -28.921,0 0,-3.064 -5.985,0 0,9.048 40.89,0 z"
         inkscape:connector-curvature="0" />
    </g>
    <path
       id="path1448"
       style="fill:#2c4257;fill-opacity:1;fill-rule:evenodd;stroke:none"
       d="m 85.731459,1010.5589 54.715851,0 0,-11.67954 -54.715851,0 z"
       inkscape:connector-curvature="0" />
    <path
       id="path1450"
       style="fill:#00c4d7;fill-opacity:1;fill-rule:evenodd;stroke:none"
       d="m 88.890919,1006.5897 23.938841,0 0,-3.0306 -23.938841,0 z"
       inkscape:connector-curvature="0" />
    <path
       id="path1452"
       style="fill:#ffac32;fill-opacity:1;fill-rule:evenodd;stroke:none"
       d="m 115.22746,1010.5681 8.24931,0 0,-11.65916 -8.24931,0 z"
       inkscape:connector-curvature="0" />
    <path
       id="path1454"
       style="fill:#ffac32;fill-opacity:1;fill-rule:evenodd;stroke:none"
       d="m 126.15578,1010.5681 8.24865,0 0,-11.65916 -8.24865,0 z"
       inkscape:connector-curvature="0" />
    <path
       id="path1456"
       style="fill:#eb5a49;fill-opacity:1;fill-rule:evenodd;stroke:none"
       d="m 95.06262,998.87936 45.38469,0 0,-6.14212 -45.38469,0 z"
       inkscape:connector-curvature="0" />
    <path
       id="path1458"
       style="fill:#fffdfa;fill-opacity:1;fill-rule:evenodd;stroke:none"
       d="m 99.323658,997.02325 36.863932,0 0,-2.43121 -36.863932,0 z"
       inkscape:connector-curvature="0" />
    <path
       id="path1460"
       style="fill:#69cbcc;fill-opacity:1;fill-rule:evenodd;stroke:none"
       d="m 89.603398,992.73724 50.843912,0 0,-6.82503 -50.843912,0 z"
       inkscape:connector-curvature="0" />
    <g
       transform="matrix(0.65726332,0,0,-0.65726332,136.42092,991.17282)"
       id="g1462">
      <path
         id="path1464"
         style="fill:#ffffff;fill-opacity:1;fill-rule:evenodd;stroke:none"
         d="M 0,0 C 1.548,0 2.811,1.264 2.811,2.811 2.811,4.359 1.548,5.622 0,5.622 -1.547,5.622 -2.811,4.359 -2.811,2.811 -2.811,1.264 -1.547,0 0,0"
         inkscape:connector-curvature="0" />
    </g>
    <g
       transform="matrix(0.65726332,0,0,-0.65726332,131.537,991.17282)"
       id="g1466">
      <path
         id="path1468"
         style="fill:#ffffff;fill-opacity:1;fill-rule:evenodd;stroke:none"
         d="M 0,0 C 1.549,0 2.812,1.264 2.812,2.811 2.812,4.359 1.549,5.622 0,5.622 -1.548,5.622 -2.811,4.359 -2.811,2.811 -2.811,1.264 -1.548,0 0,0"
         inkscape:connector-curvature="0" />
    </g>
    <path
       id="path1470"
       style="fill:#ffffff;fill-opacity:1;fill-rule:evenodd;stroke:none"
       d="m 89.603398,989.85382 36.046292,0 0,-1.05754 -36.046292,0 z"
       inkscape:connector-curvature="0" />
    <g
       transform="matrix(0.65726332,0,0,-0.65726332,-340.1778,1396.274)"
       id="g1472">
      <g
         id="g1474" />
      <g
         id="g1486">
        <g
           style="opacity:0.10000598"
           id="g1484"
           clip-path="url(#clipPath1478-6)">
          <g
             id="g1482"
             transform="translate(648.0039,604.6196)">
            <path
               id="path1480"
               style="fill:#000000;fill-opacity:1;fill-rule:evenodd;stroke:none"
               d="M 0,0 83.248,-17.77 0,-17.77 Z"
               inkscape:connector-curvature="0" />
          </g>
        </g>
      </g>
    </g>
    <g
       transform="matrix(0.65726332,0,0,-0.65726332,-340.1778,1396.274)"
       id="g1488">
      <g
         id="g1490" />
      <g
         id="g1502">
        <g
           style="opacity:0.10000598"
           id="g1500"
           clip-path="url(#clipPath1494-1)">
          <g
             id="g1498"
             transform="translate(662.2021,614.0815)">
            <path
               id="path1496"
               style="fill:#000000;fill-opacity:1;fill-rule:evenodd;stroke:none"
               d="M 0,0 69.05,-9.462 0,-9.462 Z"
               inkscape:connector-curvature="0" />
          </g>
        </g>
      </g>
    </g>
    <g
       transform="matrix(0.65726332,0,0,-0.65726332,-340.1778,1396.274)"
       id="g1504">
      <g
         id="g1506" />
      <g
         id="g1518">
        <g
           style="opacity:0.10000598"
           id="g1516"
           clip-path="url(#clipPath1510-4)">
          <g
             id="g1514"
             transform="translate(653.8945,624.3486)">
            <path
               id="path1512"
               style="fill:#000000;fill-opacity:1;fill-rule:evenodd;stroke:none"
               d="M 0,0 77.357,-10.384 0,-10.384 Z"
               inkscape:connector-curvature="0" />
          </g>
        </g>
      </g>
    </g>
  </g>
</svg>
