<?xml version="1.0" encoding="UTF-8" standalone="no"?>
<!-- Created with Inkscape (http://www.inkscape.org/) -->

<svg
   xmlns:dc="http://purl.org/dc/elements/1.1/"
   xmlns:cc="http://creativecommons.org/ns#"
   xmlns:rdf="http://www.w3.org/1999/02/22-rdf-syntax-ns#"
   xmlns:svg="http://www.w3.org/2000/svg"
   xmlns="http://www.w3.org/2000/svg"
   xmlns:sodipodi="http://sodipodi.sourceforge.net/DTD/sodipodi-0.dtd"
   xmlns:inkscape="http://www.inkscape.org/namespaces/inkscape"
   width="266"
   height="173"
   viewBox="0 0 266 173"
   id="svg9844"
   version="1.1"
   inkscape:version="0.91 r13725"
   sodipodi:docname="books_left.svg">
  <defs
     id="defs9846">
    <clipPath
       id="clipPath1826-5"
       clipPathUnits="userSpaceOnUse">
      <path
         inkscape:connector-curvature="0"
         id="path1824-2"
         d="m 70.5527,574.814 202.2373,0 0,-51.566 -202.2373,0 z" />
    </clipPath>
    <linearGradient
       id="linearGradient1836-3"
       spreadMethod="pad"
       gradientTransform="matrix(0,98.73317,98.73317,0,171.67139,522.83057)"
       gradientUnits="userSpaceOnUse"
       y2="0"
       x2="1"
       y1="0"
       x1="0">
      <stop
         id="stop1832-6"
         offset="0"
         style="stop-opacity:1;stop-color:#ffffff" />
      <stop
         id="stop1834-5"
         offset="1"
         style="stop-opacity:1;stop-color:#231f20" />
    </linearGradient>
    <clipPath
       id="clipPath1304-6"
       clipPathUnits="userSpaceOnUse">
      <path
         inkscape:connector-curvature="0"
         id="path1302-7"
         d="m 241.93,643.216 16.903,0 0,-56.38 -16.903,0 z" />
    </clipPath>
    <clipPath
       id="clipPath1280-3"
       clipPathUnits="userSpaceOnUse">
      <path
         inkscape:connector-curvature="0"
         id="path1278-2"
         d="m 225.027,643.216 16.903,0 0,-56.38 -16.903,0 z" />
    </clipPath>
    <clipPath
       id="clipPath1256-5"
       clipPathUnits="userSpaceOnUse">
      <path
         inkscape:connector-curvature="0"
         id="path1254-4"
         d="m 199.37,650 11.807,0 0,-63.164 -11.807,0 z" />
    </clipPath>
    <clipPath
       id="clipPath1240-8"
       clipPathUnits="userSpaceOnUse">
      <path
         inkscape:connector-curvature="0"
         id="path1238-9"
         d="m 188.744,643.216 10.76,0 0,-56.38 -10.76,0 z" />
    </clipPath>
    <clipPath
       id="clipPath1224-4"
       clipPathUnits="userSpaceOnUse">
      <path
         inkscape:connector-curvature="0"
         id="path1222-4"
         d="m 211.187,654.81 13.876,0 0,-67.974 -13.876,0 z" />
    </clipPath>
    <clipPath
       id="clipPath1198-8"
       clipPathUnits="userSpaceOnUse">
      <path
         inkscape:connector-curvature="0"
         id="path1196-1"
         d="m 168.542,654.81 20.202,0 0,-67.974 -20.202,0 z" />
    </clipPath>
  </defs>
  <sodipodi:namedview
     id="base"
     pagecolor="#ffffff"
     bordercolor="#666666"
     borderopacity="1.0"
     inkscape:pageopacity="0.0"
     inkscape:pageshadow="2"
     inkscape:zoom="1.979899"
     inkscape:cx="103.09215"
     inkscape:cy="77.807875"
     inkscape:document-units="px"
     inkscape:current-layer="layer1"
     showgrid="false"
     units="px"
     inkscape:window-width="1680"
     inkscape:window-height="987"
     inkscape:window-x="1912"
     inkscape:window-y="-8"
     inkscape:window-maximized="1" />
  <metadata
     id="metadata9849">
    <rdf:RDF>
      <cc:Work
         rdf:about="">
        <dc:format>image/svg+xml</dc:format>
        <dc:type
           rdf:resource="http://purl.org/dc/dcmitype/StillImage" />
        <dc:title></dc:title>
      </cc:Work>
    </rdf:RDF>
  </metadata>
  <g
     inkscape:label="Capa 1"
     inkscape:groupmode="layer"
     id="layer1"
     transform="translate(0,-879.3622)">
    <path
       id="path1126"
       style="fill:#fffffb;fill-opacity:1;fill-rule:nonzero;stroke:none"
       d="m 265.84631,984.57711 -220.396482,0 0,-15.8032 220.396482,0 z"
       inkscape:connector-curvature="0" />
    <g
       transform="matrix(1.3145286,0,0,-1.3145286,128.78818,967.19501)"
       id="g1128">
      <path
         id="path1130"
         style="fill:#22a1c2;fill-opacity:1;fill-rule:nonzero;stroke:none"
         d="m 0,0 0,11.86 -51.371,0 c -3.277,0 -5.932,-2.654 -5.932,-5.931 l 0,-2.176 0,-0.071 c 0.468,-2.809 2.989,-4.883 5.932,-4.883 L 0,-1.201 0,10.66"
         inkscape:connector-curvature="0" />
    </g>
    <g
       transform="matrix(1.3145286,0,0,-1.3145286,128.78818,953.18181)"
       id="g1132">
      <path
         id="path1134"
         style="fill:#fffac3;fill-opacity:1;fill-rule:nonzero;stroke:none"
         d="m 0,0 -50.719,0 c -3.04,0 -5.505,-2.464 -5.505,-5.504 0,-3.04 2.465,-5.504 5.505,-5.504 l 50.719,0 z"
         inkscape:connector-curvature="0" />
    </g>
    <g
       transform="matrix(1.3145286,0,0,-1.3145286,128.78818,950.02641)"
       id="g1136">
      <path
         id="path1138"
         style="fill:#653e15;fill-opacity:1;fill-rule:nonzero;stroke:none"
         d="m 0,0 0,11.86 -51.371,0 c -3.277,0 -5.932,-2.655 -5.932,-5.931 l 0,-2.176 0,-0.071 c 0.468,-2.81 2.989,-4.883 5.932,-4.883 L 0,-1.201 0,10.66"
         inkscape:connector-curvature="0" />
    </g>
    <g
       transform="matrix(1.3145286,0,0,-1.3145286,128.78818,936.01341)"
       id="g1140">
      <path
         id="path1142"
         style="fill:#fffac3;fill-opacity:1;fill-rule:nonzero;stroke:none"
         d="m 0,0 -50.719,0 c -3.04,0 -5.505,-2.464 -5.505,-5.504 0,-3.04 2.465,-5.505 5.505,-5.505 l 50.719,0 z"
         inkscape:connector-curvature="0" />
    </g>
    <g
       transform="matrix(1.3145286,0,0,-1.3145286,128.78818,933.03641)"
       id="g1144">
      <path
         id="path1146"
         style="fill:#99695b;fill-opacity:1;fill-rule:nonzero;stroke:none"
         d="m 0,0 0,10.522 -45.579,0 c -2.907,0 -5.262,-2.355 -5.262,-5.261 l 0,-1.931 0,-0.063 c 0.415,-2.493 2.652,-4.332 5.262,-4.332 L 0,-1.065 0,9.458"
         inkscape:connector-curvature="0" />
    </g>
    <g
       transform="matrix(1.3145286,0,0,-1.3145286,128.78818,920.60361)"
       id="g1148">
      <path
         id="path1150"
         style="fill:#fffac3;fill-opacity:1;fill-rule:nonzero;stroke:none"
         d="m 0,0 -45,0 c -2.697,0 -4.883,-2.186 -4.883,-4.883 0,-2.698 2.186,-4.884 4.883,-4.884 l 45,0 z"
         inkscape:connector-curvature="0" />
    </g>
    <g
       transform="matrix(1.3145286,0,0,-1.3145286,128.78818,917.80511)"
       id="g1152">
      <path
         id="path1154"
         style="fill:#22a1c2;fill-opacity:1;fill-rule:nonzero;stroke:none"
         d="m 0,0 0,10.522 -45.579,0 c -2.907,0 -5.262,-2.355 -5.262,-5.261 l 0,-1.93 0,-0.064 c 0.415,-2.493 2.652,-4.332 5.262,-4.332 L 0,-1.065 0,9.458"
         inkscape:connector-curvature="0" />
    </g>
    <g
       transform="matrix(1.3145286,0,0,-1.3145286,128.78818,905.37171)"
       id="g1156">
      <path
         id="path1158"
         style="fill:#fffac3;fill-opacity:1;fill-rule:nonzero;stroke:none"
         d="m 0,0 -45,0 c -2.697,0 -4.883,-2.187 -4.883,-4.883 0,-2.698 2.186,-4.885 4.883,-4.885 l 45,0 z"
         inkscape:connector-curvature="0" />
    </g>
    <path
       id="path1160"
       style="fill:#2c4257;fill-opacity:1;fill-rule:evenodd;stroke:none"
       d="m 128.80934,968.77391 26.55611,0 0,-89.3525 -26.55611,0 z"
       inkscape:connector-curvature="0" />
    <path
       id="path1162"
       style="fill:#00c4d7;fill-opacity:1;fill-rule:evenodd;stroke:none"
       d="m 137.8349,923.67241 6.89338,0 0,-39.0928 -6.89338,0 z"
       inkscape:connector-curvature="0" />
    <path
       id="path1164"
       style="fill:#ffac32;fill-opacity:1;fill-rule:evenodd;stroke:none"
       d="m 128.78962,941.05831 26.51009,0 0,-13.4699 -26.51009,0 z"
       inkscape:connector-curvature="0" />
    <g
       transform="matrix(1.3145286,0,0,-1.3145286,128.78949,945.43401)"
       id="g1166">
      <path
         id="path1168"
         style="fill:#ffac32;fill-opacity:1;fill-rule:evenodd;stroke:none"
         d="m 0,0 -0.001,-10.247 20.168,0 0,10.247 z"
         inkscape:connector-curvature="0" />
    </g>
    <g
       transform="matrix(1.3145286,0,0,-1.3145286,155.36558,894.65901)"
       id="g1170">
      <path
         id="path1172"
         style="fill:#eb5a49;fill-opacity:1;fill-rule:evenodd;stroke:none"
         d="m 0,0 0,-56.381 10.625,0 L 10.627,0 Z"
         inkscape:connector-curvature="0" />
    </g>
    <g
       transform="matrix(1.3145286,0,0,-1.3145286,159.58784,901.61621)"
       id="g1174">
      <path
         id="path1176"
         style="fill:#fffdfa;fill-opacity:1;fill-rule:evenodd;stroke:none"
         d="m 0,0 0,-45.796 4.206,0 L 4.207,0 Z"
         inkscape:connector-curvature="0" />
    </g>
    <g
       transform="matrix(1.3145286,0,0,-1.3145286,169.33508,885.74361)"
       id="g1178">
      <path
         id="path1180"
         style="fill:#69cbcc;fill-opacity:1;fill-rule:evenodd;stroke:none"
         d="m 0,0 -0.001,-63.163 11.807,0 0,63.163 z"
         inkscape:connector-curvature="0" />
    </g>
    <g
       transform="matrix(1.3145286,0,0,-1.3145286,172.89219,962.19811)"
       id="g1182">
      <path
         id="path1184"
         style="fill:#ffffff;fill-opacity:1;fill-rule:evenodd;stroke:none"
         d="m 0,0 c 0,-1.263 1.438,-2.294 3.195,-2.294 1.761,0 3.198,1.031 3.198,2.294 0,1.264 -1.437,2.296 -3.198,2.296 C 1.438,2.296 0,1.264 0,0"
         inkscape:connector-curvature="0" />
    </g>
    <g
       transform="matrix(1.3145286,0,0,-1.3145286,172.8935,954.22291)"
       id="g1186">
      <path
         id="path1188"
         style="fill:#ffffff;fill-opacity:1;fill-rule:evenodd;stroke:none"
         d="m 0,0 c 0,-1.264 1.437,-2.295 3.194,-2.295 1.761,0 3.198,1.031 3.198,2.295 0,1.265 -1.437,2.295 -3.198,2.295 C 1.437,2.295 0,1.265 0,0"
         inkscape:connector-curvature="0" />
    </g>
    <path
       id="path1190"
       style="fill:#ffffff;fill-opacity:1;fill-rule:evenodd;stroke:none"
       d="m 175.8905,944.60761 2.40559,0 0,-58.8646 -2.40559,0 z"
       inkscape:connector-curvature="0" />
    <g
       transform="matrix(1.3145286,0,0,-1.3145286,-92.743936,1740.1867)"
       id="g1192">
      <g
         id="g1194" />
      <g
         id="g1206">
        <g
           style="opacity:0.10000598"
           id="g1204"
           clip-path="url(#clipPath1198-8)">
          <g
             id="g1202"
             transform="translate(188.7441,654.8096)">
            <path
               id="path1200"
               style="fill:#000000;fill-opacity:1;fill-rule:evenodd;stroke:none"
               d="m 0,0 -20.202,-67.973 0,67.973 z"
               inkscape:connector-curvature="0" />
          </g>
        </g>
      </g>
    </g>
    <path
       id="path1208"
       style="fill:#eb5a49;fill-opacity:1;fill-rule:evenodd;stroke:none"
       d="m 184.86873,968.77391 18.23908,0 0,-89.3525 -18.23908,0 z"
       inkscape:connector-curvature="0" />
    <path
       id="path1210"
       style="fill:#ffffff;fill-opacity:1;fill-rule:evenodd;stroke:none"
       d="m 191.06804,923.67241 4.73231,0 0,-39.0928 -4.73231,0 z"
       inkscape:connector-curvature="0" />
    <path
       id="path1212"
       style="fill:#2c4257;fill-opacity:1;fill-rule:evenodd;stroke:none"
       d="m 184.85689,941.05831 18.20491,0 0,-13.4699 -18.20491,0 z"
       inkscape:connector-curvature="0" />
    <g
       transform="matrix(1.3145286,0,0,-1.3145286,184.8565,945.43401)"
       id="g1214">
      <path
         id="path1216"
         style="fill:#2c4257;fill-opacity:1;fill-rule:evenodd;stroke:none"
         d="m 0,0 -0.002,-10.247 13.851,0 0,10.247 z"
         inkscape:connector-curvature="0" />
    </g>
    <g
       transform="matrix(1.3145286,0,0,-1.3145286,-92.743936,1740.1867)"
       id="g1218">
      <g
         id="g1220" />
      <g
         id="g1232">
        <g
           style="opacity:0.10000598"
           id="g1230"
           clip-path="url(#clipPath1224-4)">
          <g
             id="g1228"
             transform="translate(225.063,654.8096)">
            <path
               id="path1226"
               style="fill:#000000;fill-opacity:1;fill-rule:evenodd;stroke:none"
               d="m 0,0 -13.875,-67.973 0,67.973 z"
               inkscape:connector-curvature="0" />
          </g>
        </g>
      </g>
    </g>
    <g
       transform="matrix(1.3145286,0,0,-1.3145286,-92.743936,1740.1867)"
       id="g1234">
      <g
         id="g1236" />
      <g
         id="g1248">
        <g
           style="opacity:0.10000598"
           id="g1246"
           clip-path="url(#clipPath1240-8)">
          <g
             id="g1244"
             transform="translate(199.5039,643.2163)">
            <path
               id="path1242"
               style="fill:#000000;fill-opacity:1;fill-rule:evenodd;stroke:none"
               d="m 0,0 -10.76,-56.38 0,56.38 z"
               inkscape:connector-curvature="0" />
          </g>
        </g>
      </g>
    </g>
    <g
       transform="matrix(1.3145286,0,0,-1.3145286,-92.743936,1740.1867)"
       id="g1250">
      <g
         id="g1252" />
      <g
         id="g1264">
        <g
           style="opacity:0.10000598"
           id="g1262"
           clip-path="url(#clipPath1256-5)">
          <g
             id="g1260"
             transform="translate(211.1768,649.9995)">
            <path
               id="path1258"
               style="fill:#000000;fill-opacity:1;fill-rule:evenodd;stroke:none"
               d="M 0,0 -11.807,-63.163 -11.806,0 Z"
               inkscape:connector-curvature="0" />
          </g>
        </g>
      </g>
    </g>
    <g
       transform="matrix(1.3145286,0,0,-1.3145286,203.06088,894.65901)"
       id="g1266">
      <path
         id="path1268"
         style="fill:#69cbcc;fill-opacity:1;fill-rule:evenodd;stroke:none"
         d="m 0,0 0,-56.381 16.692,0 L 16.695,0 Z"
         inkscape:connector-curvature="0" />
    </g>
    <g
       transform="matrix(1.3145286,0,0,-1.3145286,209.69334,901.61621)"
       id="g1270">
      <path
         id="path1272"
         style="fill:#fffdfa;fill-opacity:1;fill-rule:evenodd;stroke:none"
         d="m 0,0 0,-45.796 6.607,0 L 6.61,0 Z"
         inkscape:connector-curvature="0" />
    </g>
    <g
       transform="matrix(1.3145286,0,0,-1.3145286,-92.743936,1740.1867)"
       id="g1274">
      <g
         id="g1276" />
      <g
         id="g1288">
        <g
           style="opacity:0.10000598"
           id="g1286"
           clip-path="url(#clipPath1280-3)">
          <g
             id="g1284"
             transform="translate(241.9302,643.2163)">
            <path
               id="path1282"
               style="fill:#000000;fill-opacity:1;fill-rule:evenodd;stroke:none"
               d="m 0,0 -16.903,-56.38 0,56.38 z"
               inkscape:connector-curvature="0" />
          </g>
        </g>
      </g>
    </g>
    <g
       transform="matrix(1.3145286,0,0,-1.3145286,225.28023,894.65901)"
       id="g1290">
      <path
         id="path1292"
         style="fill:#ffac32;fill-opacity:1;fill-rule:evenodd;stroke:none"
         d="m 0,0 0,-56.381 16.692,0 L 16.695,0 Z"
         inkscape:connector-curvature="0" />
    </g>
    <g
       transform="matrix(1.3145286,0,0,-1.3145286,231.9132,901.61621)"
       id="g1294">
      <path
         id="path1296"
         style="fill:#fffdfa;fill-opacity:1;fill-rule:evenodd;stroke:none"
         d="m 0,0 0,-45.796 6.607,0 L 6.609,0 Z"
         inkscape:connector-curvature="0" />
    </g>
    <g
       transform="matrix(1.3145286,0,0,-1.3145286,-92.743936,1740.1867)"
       id="g1298">
      <g
         id="g1300" />
      <g
         id="g1312">
        <g
           style="opacity:0.10000598"
           id="g1310"
           clip-path="url(#clipPath1304-6)">
          <g
             id="g1308"
             transform="translate(258.8335,643.2163)">
            <path
               id="path1306"
               style="fill:#000000;fill-opacity:1;fill-rule:evenodd;stroke:none"
               d="m 0,0 -16.903,-56.38 0,56.38 z"
               inkscape:connector-curvature="0" />
          </g>
        </g>
      </g>
    </g>
    <g
       transform="matrix(1.3145286,0,0,-1.3145286,-92.743936,1740.1867)"
       id="g1820">
      <g
         id="g1822" />
      <g
         id="g1850">
        <g
           style="opacity:0.30000299"
           id="g1848"
           clip-path="url(#clipPath1826-5)">
          <g
             id="g1846">
            <g
               id="g1844">
              <g
                 id="g1842">
                <g
                   id="g1840">
                  <path
                     id="path1838"
                     style="fill:url(#linearGradient1836-3);stroke:none"
                     d="m 105.128,574.814 -34.575,-28.039 0,-23.527 138.649,0 63.588,51.566 z"
                     inkscape:connector-curvature="0" />
                </g>
              </g>
            </g>
          </g>
        </g>
      </g>
    </g>
  </g>
</svg>
