<?xml version="1.0" encoding="UTF-8" standalone="no"?>
<!-- Created with Inkscape (http://www.inkscape.org/) -->

<svg
   xmlns:dc="http://purl.org/dc/elements/1.1/"
   xmlns:cc="http://creativecommons.org/ns#"
   xmlns:rdf="http://www.w3.org/1999/02/22-rdf-syntax-ns#"
   xmlns:svg="http://www.w3.org/2000/svg"
   xmlns="http://www.w3.org/2000/svg"
   xmlns:sodipodi="http://sodipodi.sourceforge.net/DTD/sodipodi-0.dtd"
   xmlns:inkscape="http://www.inkscape.org/namespaces/inkscape"
   width="57.993"
   height="57.993"
   viewBox="0 0 57.993 57.993"
   id="svg9844"
   version="1.1"
   inkscape:version="0.91 r13725"
   sodipodi:docname="clock.svg">
  <defs
     id="defs9846" />
  <sodipodi:namedview
     id="base"
     pagecolor="#ffffff"
     bordercolor="#666666"
     borderopacity="1.0"
     inkscape:pageopacity="0.0"
     inkscape:pageshadow="2"
     inkscape:zoom="1.979899"
     inkscape:cx="26.825629"
     inkscape:cy="77.807875"
     inkscape:document-units="px"
     inkscape:current-layer="layer1"
     showgrid="false"
     units="px"
     inkscape:window-width="1920"
     inkscape:window-height="1017"
     inkscape:window-x="-8"
     inkscape:window-y="-8"
     inkscape:window-maximized="1"
     fit-margin-top="0"
     fit-margin-left="0"
     fit-margin-right="0"
     fit-margin-bottom="0" />
  <metadata
     id="metadata9849">
    <rdf:RDF>
      <cc:Work
         rdf:about="">
        <dc:format>image/svg+xml</dc:format>
        <dc:type
           rdf:resource="http://purl.org/dc/dcmitype/StillImage" />
        <dc:title></dc:title>
      </cc:Work>
    </rdf:RDF>
  </metadata>
  <g
     inkscape:label="Capa 1"
     inkscape:groupmode="layer"
     id="layer1"
     transform="translate(-3.98824e-6,-994.3692)">
    <g
       transform="matrix(0.65726364,0,0,-0.65726364,57.993004,1023.3657)"
       id="g1376">
      <path
         id="path1378"
         style="fill:#0a646c;fill-opacity:1;fill-rule:nonzero;stroke:none"
         d="m 0,0 c 0,24.365 -19.753,44.117 -44.116,44.117 -24.366,0 -44.118,-19.752 -44.118,-44.117 0,-24.365 19.752,-44.117 44.118,-44.117 C -19.753,-44.117 0,-24.365 0,0"
         inkscape:connector-curvature="0" />
    </g>
    <g
       transform="matrix(0.65726364,0,0,-0.65726364,54.729097,1023.3657)"
       id="g1380">
      <path
         id="path1382"
         style="fill:#fffdfe;fill-opacity:1;fill-rule:nonzero;stroke:none"
         d="m 0,0 c 0,21.623 -17.528,39.15 -39.15,39.15 -21.623,0 -39.152,-17.527 -39.152,-39.15 0,-21.623 17.529,-39.15 39.152,-39.15 C -17.528,-39.15 0,-21.623 0,0"
         inkscape:connector-curvature="0" />
    </g>
    <path
       id="path1384"
       style="fill:#0a646c;fill-opacity:1;fill-rule:nonzero;stroke:none"
       d="m 8.4111313,1023.9062 -2.940597,0 0,-1.0819 2.940597,0 z"
       inkscape:connector-curvature="0" />
    <path
       id="path1386"
       style="fill:#0a646c;fill-opacity:1;fill-rule:nonzero;stroke:none"
       d="m 52.313719,1023.9062 -2.941264,0 0,-1.0819 2.941264,0 z"
       inkscape:connector-curvature="0" />
    <path
       id="path1388"
       style="fill:#0a646c;fill-opacity:1;fill-rule:nonzero;stroke:none"
       d="m 28.350541,999.94431 1.081854,0 0,2.94059 -1.081854,0 z"
       inkscape:connector-curvature="0" />
    <path
       id="path1390"
       style="fill:#0a646c;fill-opacity:1;fill-rule:nonzero;stroke:none"
       d="m 28.350541,1043.8456 1.081854,0 0,2.9413 -1.081854,0 z"
       inkscape:connector-curvature="0" />
    <g
       transform="matrix(0.65726364,0,0,-0.65726364,28.996956,1026.2252)"
       id="g1396">
      <path
         id="path1398"
         style="fill:#ffffff;fill-opacity:1;fill-rule:nonzero;stroke:#231f20;stroke-width:0.685;stroke-linecap:butt;stroke-linejoin:miter;stroke-miterlimit:10;stroke-dasharray:none;stroke-opacity:1"
         d="M 0,0 0,33.77"
         inkscape:connector-curvature="0" />
    </g>
    <g
       transform="matrix(0.65726364,0,0,-0.65726364,30.108065,1024.5272)"
       id="g1400">
      <path
         id="path1402"
         style="fill:#ffffff;fill-opacity:1;fill-rule:nonzero;stroke:#231f20;stroke-width:0.685;stroke-linecap:butt;stroke-linejoin:miter;stroke-miterlimit:10;stroke-dasharray:none;stroke-opacity:1"
         d="M 0,0 -14.701,15.435"
         inkscape:connector-curvature="0" />
    </g>
  </g>
</svg>
