<?xml version="1.0" encoding="UTF-8" standalone="no"?>
<!-- Created with Inkscape (http://www.inkscape.org/) -->

<svg
   xmlns:dc="http://purl.org/dc/elements/1.1/"
   xmlns:cc="http://creativecommons.org/ns#"
   xmlns:rdf="http://www.w3.org/1999/02/22-rdf-syntax-ns#"
   xmlns:svg="http://www.w3.org/2000/svg"
   xmlns="http://www.w3.org/2000/svg"
   xmlns:sodipodi="http://sodipodi.sourceforge.net/DTD/sodipodi-0.dtd"
   xmlns:inkscape="http://www.inkscape.org/namespaces/inkscape"
   width="116"
   height="116"
   viewBox="0 0 116 116"
   id="svg9844"
   version="1.1"
   inkscape:version="0.91 r13725"
   sodipodi:docname="clock.svg">
  <defs
     id="defs9846" />
  <sodipodi:namedview
     id="base"
     pagecolor="#ffffff"
     bordercolor="#666666"
     borderopacity="1.0"
     inkscape:pageopacity="0.0"
     inkscape:pageshadow="2"
     inkscape:zoom="1.979899"
     inkscape:cx="103.09215"
     inkscape:cy="77.807875"
     inkscape:document-units="px"
     inkscape:current-layer="layer1"
     showgrid="false"
     units="px"
     inkscape:window-width="1680"
     inkscape:window-height="987"
     inkscape:window-x="1912"
     inkscape:window-y="-8"
     inkscape:window-maximized="1" />
  <metadata
     id="metadata9849">
    <rdf:RDF>
      <cc:Work
         rdf:about="">
        <dc:format>image/svg+xml</dc:format>
        <dc:type
           rdf:resource="http://purl.org/dc/dcmitype/StillImage" />
        <dc:title></dc:title>
      </cc:Work>
    </rdf:RDF>
  </metadata>
  <g
     inkscape:label="Capa 1"
     inkscape:groupmode="layer"
     id="layer1"
     transform="translate(0,-936.3622)">
    <g
       transform="matrix(1.3145286,0,0,-1.3145286,115.98612,994.36915)"
       id="g1376">
      <path
         id="path1378"
         style="fill:#0a646c;fill-opacity:1;fill-rule:nonzero;stroke:none"
         d="m 0,0 c 0,24.365 -19.753,44.117 -44.116,44.117 -24.366,0 -44.118,-19.752 -44.118,-44.117 0,-24.365 19.752,-44.117 44.118,-44.117 C -19.753,-44.117 0,-24.365 0,0"
         inkscape:connector-curvature="0" />
    </g>
    <g
       transform="matrix(1.3145286,0,0,-1.3145286,109.4583,994.36915)"
       id="g1380">
      <path
         id="path1382"
         style="fill:#fffdfe;fill-opacity:1;fill-rule:nonzero;stroke:none"
         d="m 0,0 c 0,21.623 -17.528,39.15 -39.15,39.15 -21.623,0 -39.152,-17.527 -39.152,-39.15 0,-21.623 17.529,-39.15 39.152,-39.15 C -17.528,-39.15 0,-21.623 0,0"
         inkscape:connector-curvature="0" />
    </g>
    <path
       id="path1384"
       style="fill:#0a646c;fill-opacity:1;fill-rule:nonzero;stroke:none"
       d="m 16.822276,995.45009 -5.8812,0 0,-2.16372 5.8812,0 z"
       inkscape:connector-curvature="0" />
    <path
       id="path1386"
       style="fill:#0a646c;fill-opacity:1;fill-rule:nonzero;stroke:none"
       d="m 104.62754,995.45009 -5.882534,0 0,-2.16372 5.882534,0 z"
       inkscape:connector-curvature="0" />
    <path
       id="path1388"
       style="fill:#0a646c;fill-opacity:1;fill-rule:nonzero;stroke:none"
       d="m 56.701136,947.52631 2.16371,0 0,5.88121 -2.16371,0 z"
       inkscape:connector-curvature="0" />
    <path
       id="path1390"
       style="fill:#0a646c;fill-opacity:1;fill-rule:nonzero;stroke:none"
       d="m 56.701136,1035.3289 2.16371,0 0,5.8826 -2.16371,0 z"
       inkscape:connector-curvature="0" />
    <g
       transform="matrix(1.3145286,0,0,-1.3145286,57.993966,1000.0881)"
       id="g1396">
      <path
         id="path1398"
         style="fill:#ffffff;fill-opacity:1;fill-rule:nonzero;stroke:#231f20;stroke-width:0.685;stroke-linecap:butt;stroke-linejoin:miter;stroke-miterlimit:10;stroke-dasharray:none;stroke-opacity:1"
         d="M 0,0 0,33.77"
         inkscape:connector-curvature="0" />
    </g>
    <g
       transform="matrix(1.3145286,0,0,-1.3145286,60.216186,996.69205)"
       id="g1400">
      <path
         id="path1402"
         style="fill:#ffffff;fill-opacity:1;fill-rule:nonzero;stroke:#231f20;stroke-width:0.685;stroke-linecap:butt;stroke-linejoin:miter;stroke-miterlimit:10;stroke-dasharray:none;stroke-opacity:1"
         d="M 0,0 -14.701,15.435"
         inkscape:connector-curvature="0" />
    </g>
  </g>
</svg>
