<?xml version="1.0" encoding="UTF-8" standalone="no"?>
<!-- Created with Inkscape (http://www.inkscape.org/) -->

<svg
   xmlns:dc="http://purl.org/dc/elements/1.1/"
   xmlns:cc="http://creativecommons.org/ns#"
   xmlns:rdf="http://www.w3.org/1999/02/22-rdf-syntax-ns#"
   xmlns:svg="http://www.w3.org/2000/svg"
   xmlns="http://www.w3.org/2000/svg"
   xmlns:sodipodi="http://sodipodi.sourceforge.net/DTD/sodipodi-0.dtd"
   xmlns:inkscape="http://www.inkscape.org/namespaces/inkscape"
   width="166"
   height="401"
   viewBox="0 0 166 401"
   id="svg9844"
   version="1.1"
   inkscape:version="0.91 r13725"
   sodipodi:docname="doctor_board.svg">
  <defs
     id="defs9846">
    <clipPath
       id="clipPath1826-5"
       clipPathUnits="userSpaceOnUse">
      <path
         inkscape:connector-curvature="0"
         id="path1824-2"
         d="m 70.5527,574.814 202.2373,0 0,-51.566 -202.2373,0 z" />
    </clipPath>
    <linearGradient
       id="linearGradient1836-3"
       spreadMethod="pad"
       gradientTransform="matrix(0,98.73317,98.73317,0,171.67139,522.83057)"
       gradientUnits="userSpaceOnUse"
       y2="0"
       x2="1"
       y1="0"
       x1="0">
      <stop
         id="stop1832-6"
         offset="0"
         style="stop-opacity:1;stop-color:#ffffff" />
      <stop
         id="stop1834-5"
         offset="1"
         style="stop-opacity:1;stop-color:#231f20" />
    </linearGradient>
    <clipPath
       id="clipPath1304-6"
       clipPathUnits="userSpaceOnUse">
      <path
         inkscape:connector-curvature="0"
         id="path1302-7"
         d="m 241.93,643.216 16.903,0 0,-56.38 -16.903,0 z" />
    </clipPath>
    <clipPath
       id="clipPath1280-3"
       clipPathUnits="userSpaceOnUse">
      <path
         inkscape:connector-curvature="0"
         id="path1278-2"
         d="m 225.027,643.216 16.903,0 0,-56.38 -16.903,0 z" />
    </clipPath>
    <clipPath
       id="clipPath1256-5"
       clipPathUnits="userSpaceOnUse">
      <path
         inkscape:connector-curvature="0"
         id="path1254-4"
         d="m 199.37,650 11.807,0 0,-63.164 -11.807,0 z" />
    </clipPath>
    <clipPath
       id="clipPath1240-8"
       clipPathUnits="userSpaceOnUse">
      <path
         inkscape:connector-curvature="0"
         id="path1238-9"
         d="m 188.744,643.216 10.76,0 0,-56.38 -10.76,0 z" />
    </clipPath>
    <clipPath
       id="clipPath1224-4"
       clipPathUnits="userSpaceOnUse">
      <path
         inkscape:connector-curvature="0"
         id="path1222-4"
         d="m 211.187,654.81 13.876,0 0,-67.974 -13.876,0 z" />
    </clipPath>
    <clipPath
       id="clipPath1198-8"
       clipPathUnits="userSpaceOnUse">
      <path
         inkscape:connector-curvature="0"
         id="path1196-1"
         d="m 168.542,654.81 20.202,0 0,-67.974 -20.202,0 z" />
    </clipPath>
    <clipPath
       id="clipPath1510-4"
       clipPathUnits="userSpaceOnUse">
      <path
         inkscape:connector-curvature="0"
         id="path1508-9"
         d="m 653.895,624.349 77.357,0 0,-10.384 -77.357,0 z" />
    </clipPath>
    <clipPath
       id="clipPath1494-1"
       clipPathUnits="userSpaceOnUse">
      <path
         inkscape:connector-curvature="0"
         id="path1492-4"
         d="m 662.202,614.082 69.05,0 0,-9.462 -69.05,0 z" />
    </clipPath>
    <clipPath
       id="clipPath1478-6"
       clipPathUnits="userSpaceOnUse">
      <path
         inkscape:connector-curvature="0"
         id="path1476-2"
         d="m 648.004,604.62 83.248,0 0,-17.77 -83.248,0 z" />
    </clipPath>
    <clipPath
       id="clipPath1320-1"
       clipPathUnits="userSpaceOnUse">
      <path
         inkscape:connector-curvature="0"
         id="path1318-3"
         d="m 517.567,574.814 228.766,0 0,-51.566 -228.766,0 z" />
    </clipPath>
    <linearGradient
       id="linearGradient1330-5"
       spreadMethod="pad"
       gradientTransform="matrix(0,98.73317,98.73317,0,631.9502,522.83057)"
       gradientUnits="userSpaceOnUse"
       y2="0"
       x2="1"
       y1="0"
       x1="0">
      <stop
         id="stop1326-0"
         offset="0"
         style="stop-opacity:1;stop-color:#ffffff" />
      <stop
         id="stop1328-8"
         offset="1"
         style="stop-opacity:1;stop-color:#231f20" />
    </linearGradient>
  </defs>
  <sodipodi:namedview
     id="base"
     pagecolor="#ffffff"
     bordercolor="#666666"
     borderopacity="1.0"
     inkscape:pageopacity="0.0"
     inkscape:pageshadow="2"
     inkscape:zoom="1.4"
     inkscape:cx="266.09444"
     inkscape:cy="93.62835"
     inkscape:document-units="px"
     inkscape:current-layer="layer1"
     showgrid="false"
     units="px"
     inkscape:window-width="1680"
     inkscape:window-height="987"
     inkscape:window-x="1912"
     inkscape:window-y="-8"
     inkscape:window-maximized="1" />
  <metadata
     id="metadata9849">
    <rdf:RDF>
      <cc:Work
         rdf:about="">
        <dc:format>image/svg+xml</dc:format>
        <dc:type
           rdf:resource="http://purl.org/dc/dcmitype/StillImage" />
        <dc:title></dc:title>
      </cc:Work>
    </rdf:RDF>
  </metadata>
  <g
     inkscape:label="Capa 1"
     inkscape:groupmode="layer"
     id="layer1"
     transform="translate(0,-651.3622)">
    <g
       transform="matrix(1.3145286,0,0,-1.3145286,114.22559,1037.767)"
       id="g1760">
      <path
         id="path1762"
         style="fill:#2f424c;fill-opacity:1;fill-rule:nonzero;stroke:none"
         d="m 0,0 c 0,0 -7.498,149.487 -6.62,150.224 l 27.958,5.421 C 21.295,155.39 17.333,-2.889 17.333,-2.889 Z"
         inkscape:connector-curvature="0" />
    </g>
    <g
       transform="matrix(1.3145286,0,0,-1.3145286,114.22559,1037.767)"
       id="g1764">
      <path
         id="path1766"
         style="fill:#161414;fill-opacity:1;fill-rule:nonzero;stroke:none"
         d="m 0,0 c 0,0 -11.834,-3.483 -16.283,-3.807 -5.819,-0.424 -7.192,-7.296 -7.192,-7.296 l 39.549,0 c 0,0 1.884,4.056 1.259,8.214 C 9.878,-1.646 1.058,0 1.058,0"
         inkscape:connector-curvature="0" />
    </g>
    <g
       transform="matrix(1.3145286,0,0,-1.3145286,126.49543,1037.767)"
       id="g1768">
      <path
         id="path1770"
         style="fill:#354b59;fill-opacity:1;fill-rule:nonzero;stroke:none"
         d="m 0,0 c 0,0 -12.938,154.908 -12.06,155.645 l 33.398,0 C 21.295,155.39 17.333,-2.889 17.333,-2.889 Z"
         inkscape:connector-curvature="0" />
    </g>
    <g
       transform="matrix(1.3145286,0,0,-1.3145286,126.49543,1037.767)"
       id="g1772">
      <path
         id="path1774"
         style="fill:#231f20;fill-opacity:1;fill-rule:nonzero;stroke:none"
         d="m 0,0 c 0,0 -11.834,-3.483 -16.283,-3.807 -5.819,-0.424 -7.192,-7.296 -7.192,-7.296 l 39.549,0 c 0,0 1.884,4.056 1.259,8.214 C 9.878,-1.646 1.058,0 1.058,0"
         inkscape:connector-curvature="0" />
    </g>
    <g
       transform="matrix(1.3145286,0,0,-1.3145286,137.25803,724.09149)"
       id="g1776">
      <path
         id="path1778"
         style="fill:#fee1b9;fill-opacity:1;fill-rule:nonzero;stroke:none"
         d="m 0,0 -3.97,31.43 -18.419,21.916 9.845,-62.555"
         inkscape:connector-curvature="0" />
    </g>
    <g
       transform="matrix(1.3145286,0,0,-1.3145286,78.556252,671.12006)"
       id="g1780">
      <path
         id="path1782"
         style="fill:#fee1b9;fill-opacity:1;fill-rule:nonzero;stroke:none"
         d="m 0,0 c 0,0 2.877,-40.177 20.124,-40.177 10.838,0 18.216,6.881 18.216,19.029 L 36.64,0"
         inkscape:connector-curvature="0" />
    </g>
    <g
       transform="matrix(1.3145286,0,0,-1.3145286,120.00241,673.80298)"
       id="g1784">
      <path
         id="path1786"
         style="fill:#243547;fill-opacity:1;fill-rule:nonzero;stroke:none"
         d="m 0,0 c 0,0 -21.439,-7.755 -30.105,0 -8.667,7.755 3.968,16.422 17.606,16.422 13.64,0 17.517,-6.158 17.517,-6.158 z"
         inkscape:connector-curvature="0" />
    </g>
    <g
       transform="matrix(1.3145286,0,0,-1.3145286,126.59806,660.3111)"
       id="g1788">
      <path
         id="path1790"
         style="fill:#243547;fill-opacity:1;fill-rule:nonzero;stroke:none"
         d="m 0,0 c 0,0 5.246,-0.228 7.072,-4.79 1.823,-4.562 0.606,-23.823 -3.044,-28.386 -0.561,4.771 -4.895,13.891 -8.024,16.587 -3.154,2.721 -5.186,2.264 -7.002,-2.887 1.038,6.457 0.506,9.212 0.506,9.212 z"
         inkscape:connector-curvature="0" />
    </g>
    <g
       transform="matrix(1.3145286,0,0,-1.3145286,154.54459,833.16769)"
       id="g1792">
      <path
         id="path1794"
         style="fill:#ffffff;fill-opacity:1;fill-rule:nonzero;stroke:none"
         d="m 0,0 c 0,0 4.793,46.815 0,69.938 -4.794,23.121 -32.43,21.994 -36.378,0 -3.948,-21.995 6.205,-37.226 5.64,-46.248 C -31.303,14.666 -33.397,0 -33.397,0 Z"
         inkscape:connector-curvature="0" />
    </g>
    <g
       transform="matrix(1.3145286,0,0,-1.3145286,13.597368,780.15154)"
       id="g1796">
      <path
         id="path1798"
         style="fill:#ffffff;fill-opacity:1;fill-rule:nonzero;stroke:none"
         d="M 0,0 C 0,0 48.89,3.983 68.326,27.256 83.978,45.997 96.803,27.213 80.922,14.589 64.45,1.497 37.241,-8.085 0.23,-7.052 0.178,-5.451 0,0 0,0"
         inkscape:connector-curvature="0" />
    </g>
    <g
       transform="matrix(1.3145286,0,0,-1.3145286,13.900368,789.42113)"
       id="g1800">
      <path
         id="path1802"
         style="fill:#ffc5a8;fill-opacity:1;fill-rule:nonzero;stroke:none"
         d="m 0,0 c 0,0 -8.498,-0.97 -9.473,0.774 -0.361,0.466 0.375,0.835 0.946,0.941 -1.161,0.352 -1.506,0.384 -1.526,0.99 -0.019,0.605 1.582,0.83 1.582,0.83 0,0 -2.072,0.108 -2.047,1.062 0.028,0.952 1.753,0.879 1.753,0.879 0,0 -1.841,0.025 -1.809,0.849 0.031,0.824 0.778,0.849 1.524,0.872 0.745,0.025 4.848,-0.664 4.848,-0.664 0,0 -2.275,1.053 -3.547,1.271 -1.271,0.219 -1.376,1.685 1.164,1.293 2.542,-0.394 6.364,-2.346 6.364,-2.346 z"
         inkscape:connector-curvature="0" />
    </g>
    <g
       transform="matrix(1.3145286,0,0,-1.3145286,138.82683,720.56001)"
       id="g1804">
      <path
         id="path1806"
         style="fill:#ffffff;fill-opacity:1;fill-rule:nonzero;stroke:none"
         d="m 0,0 c 0,0 14.087,-2.567 15.672,-17.985 2.224,-21.638 4.334,-135.254 4.334,-135.254 l -48.5,0 0,98.675 c 0,5.023 0.916,42.438 12.25,48.579 C -4.911,0.155 0,0 0,0"
         inkscape:connector-curvature="0" />
    </g>
    <g
       transform="matrix(1.3145286,0,0,-1.3145286,80.562622,695.45801)"
       id="g1808">
      <path
         id="path1810"
         style="fill:#ffffff;fill-opacity:1;fill-rule:nonzero;stroke:none"
         d="m 0,0 c 0,0 13.82,3.674 20.741,-6.664 6.921,-10.337 2.745,-13.326 0,-14.999 C 17.996,-23.335 5.004,-24.665 0,0"
         inkscape:connector-curvature="0" />
    </g>
    <g
       transform="matrix(1.3145286,0,0,-1.3145286,100.54884,698.8561)"
       id="g1812">
      <path
         id="path1814"
         style="fill:#ffffff;fill-opacity:1;fill-rule:nonzero;stroke:#ffffff;stroke-width:0.551;stroke-linecap:butt;stroke-linejoin:miter;stroke-miterlimit:10;stroke-dasharray:none;stroke-opacity:1"
         d="M 0,0 9.203,10.857"
         inkscape:connector-curvature="0" />
    </g>
    <g
       transform="matrix(1.3145286,0,0,-1.3145286,110.11638,711.33892)"
       id="g1816">
      <path
         id="path1818"
         style="fill:#ffffff;fill-opacity:1;fill-rule:nonzero;stroke:#ffffff;stroke-width:0.551;stroke-linecap:butt;stroke-linejoin:miter;stroke-miterlimit:10;stroke-dasharray:none;stroke-opacity:1"
         d="M 0,0 18.615,6.389"
         inkscape:connector-curvature="0" />
    </g>
  </g>
</svg>
