<?xml version="1.0" encoding="UTF-8" standalone="no"?>
<!-- Generator: Adobe Illustrator 16.0.0, SVG Export Plug-In . SVG Version: 6.00 Build 0)  -->

<svg
   xmlns:dc="http://purl.org/dc/elements/1.1/"
   xmlns:cc="http://creativecommons.org/ns#"
   xmlns:rdf="http://www.w3.org/1999/02/22-rdf-syntax-ns#"
   xmlns:svg="http://www.w3.org/2000/svg"
   xmlns="http://www.w3.org/2000/svg"
   xmlns:sodipodi="http://sodipodi.sourceforge.net/DTD/sodipodi-0.dtd"
   xmlns:inkscape="http://www.inkscape.org/namespaces/inkscape"
   version="1.1"
   id="Capa_1"
   x="0px"
   y="0px"
   width="89.491531"
   height="89.491516"
   viewBox="0 0 103.17674 103.17673"
   xml:space="preserve"
   inkscape:version="0.91 r13725"
   sodipodi:docname="ic_cell_with_receptors.svg"><metadata
     id="metadata41"><rdf:RDF><cc:Work
         rdf:about=""><dc:format>image/svg+xml</dc:format><dc:type
           rdf:resource="http://purl.org/dc/dcmitype/StillImage" /><dc:title></dc:title></cc:Work></rdf:RDF></metadata><defs
     id="defs39" /><sodipodi:namedview
     pagecolor="#ffffff"
     bordercolor="#666666"
     borderopacity="1"
     objecttolerance="10"
     gridtolerance="10"
     guidetolerance="10"
     inkscape:pageopacity="0"
     inkscape:pageshadow="2"
     inkscape:window-width="1680"
     inkscape:window-height="1027"
     id="namedview37"
     showgrid="false"
     showguides="true"
     inkscape:guide-bbox="true"
     inkscape:zoom="3.6875"
     inkscape:cx="18.47047"
     inkscape:cy="50.407965"
     inkscape:window-x="1912"
     inkscape:window-y="19"
     inkscape:window-maximized="1"
     inkscape:current-layer="Capa_1"
     fit-margin-top="0"
     fit-margin-left="0"
     fit-margin-right="0"
     fit-margin-bottom="0"><sodipodi:guide
       position="60.963064,84.104674"
       orientation="0,1"
       id="guide3369" /><sodipodi:guide
       position="87.22623,19.69737"
       orientation="0,1"
       id="guide3371" /><sodipodi:guide
       position="19.801892,50.31617"
       orientation="1,0"
       id="guide3373" /><sodipodi:guide
       position="83.694511,41.4729"
       orientation="1,0"
       id="guide3375" /></sodipodi:namedview><g
     id="g3"
     style="fill:#ffffff"
     transform="matrix(0.69920478,0,0,0.69915256,-0.00350042,-4.3980484e-6)"><path
       d="m 147.568,73.79 c 0,7.104 -5.758,12.861 -12.862,12.861 -6.053,0 -11.101,-4.196 -12.466,-9.835 l -16.219,0 c -0.627,6.685 -3.228,12.731 -7.282,17.626 l 11.449,11.455 c 4.947,-3.015 11.484,-2.424 15.775,1.867 5.024,5.013 5.024,13.17 0,18.193 -5.023,5.024 -13.181,5.024 -18.205,0 -4.279,-4.291 -4.882,-10.816 -1.855,-15.764 L 94.448,98.733 c -4.9,4.066 -10.953,6.673 -17.635,7.294 l 0,16.207 c 5.647,1.377 9.832,6.413 9.832,12.478 0,7.111 -5.757,12.862 -12.858,12.862 -7.105,0 -12.862,-5.751 -12.862,-12.862 0,-6.064 4.188,-11.101 9.836,-12.478 l 0,-16.207 c -6.682,-0.633 -12.735,-3.228 -17.632,-7.294 l -11.458,11.461 c 3.015,4.947 2.42,11.473 -1.871,15.764 -5.009,5.024 -13.163,5.024 -18.188,0 -5.024,-5.023 -5.024,-13.181 0,-18.193 4.286,-4.291 10.823,-4.882 15.773,-1.867 L 48.837,94.443 c -4.061,-4.9 -6.664,-10.941 -7.288,-17.626 l -16.213,0 c -1.369,5.639 -6.416,9.835 -12.469,9.835 -7.108,0 -12.862,-5.757 -12.862,-12.861 0,-7.108 5.754,-12.865 12.862,-12.865 6.053,0 11.1,4.194 12.469,9.836 l 16.214,0 C 42.179,64.074 44.777,58.021 48.838,53.13 L 37.374,41.665 c -4.938,3.026 -11.476,2.42 -15.761,-1.865 -5.024,-5.015 -5.024,-13.169 0,-18.193 5.024,-5.018 13.178,-5.018 18.2,0 4.273,4.285 4.874,10.823 1.859,15.773 L 53.13,48.838 c 4.897,-4.061 10.95,-6.67 17.632,-7.288 l 0,-16.214 C 65.114,23.962 60.926,18.926 60.926,12.861 60.925,5.754 66.682,0 73.787,0 c 7.102,0 12.858,5.754 12.858,12.861 0,6.064 -4.185,11.101 -9.832,12.475 l 0,16.214 c 6.682,0.629 12.734,3.227 17.635,7.288 L 105.903,37.38 c -3.026,-4.95 -2.424,-11.488 1.855,-15.773 5.024,-5.018 13.182,-5.018 18.205,0 5.024,5.024 5.013,13.178 0,18.193 -4.279,4.285 -10.816,4.892 -15.764,1.865 l -11.46,11.464 c 4.055,4.891 6.661,10.943 7.282,17.632 l 16.219,0 c 1.365,-5.642 6.413,-9.836 12.466,-9.836 7.105,0 12.862,5.757 12.862,12.865 z"
       id="path5"
       style="fill:#ffffff"
       inkscape:connector-curvature="0" /></g><g
     id="g7"
     transform="translate(-22.203638,-22.198634)" /><g
     id="g9"
     transform="translate(-22.203638,-22.198634)" /><g
     id="g11"
     transform="translate(-22.203638,-22.198634)" /><g
     id="g13"
     transform="translate(-22.203638,-22.198634)" /><g
     id="g15"
     transform="translate(-22.203638,-22.198634)" /><g
     id="g17"
     transform="translate(-22.203638,-22.198634)" /><g
     id="g19"
     transform="translate(-22.203638,-22.198634)" /><g
     id="g21"
     transform="translate(-22.203638,-22.198634)" /><g
     id="g23"
     transform="translate(-22.203638,-22.198634)" /><g
     id="g25"
     transform="translate(-22.203638,-22.198634)" /><g
     id="g27"
     transform="translate(-22.203638,-22.198634)" /><g
     id="g29"
     transform="translate(-22.203638,-22.198634)" /><g
     id="g31"
     transform="translate(-22.203638,-22.198634)" /><g
     id="g33"
     transform="translate(-22.203638,-22.198634)" /><g
     id="g35"
     transform="translate(-22.203638,-22.198634)" /></svg>