<?xml version="1.0" encoding="UTF-8" standalone="no"?>
<!-- Generator: Adobe Illustrator 16.0.0, SVG Export Plug-In . SVG Version: 6.00 Build 0)  -->

<svg
   xmlns:dc="http://purl.org/dc/elements/1.1/"
   xmlns:cc="http://creativecommons.org/ns#"
   xmlns:rdf="http://www.w3.org/1999/02/22-rdf-syntax-ns#"
   xmlns:svg="http://www.w3.org/2000/svg"
   xmlns="http://www.w3.org/2000/svg"
   xmlns:sodipodi="http://sodipodi.sourceforge.net/DTD/sodipodi-0.dtd"
   xmlns:inkscape="http://www.inkscape.org/namespaces/inkscape"
   version="1.1"
   id="Capa_1"
   x="0px"
   y="0px"
   width="128"
   height="128"
   viewBox="0 0 128 128"
   xml:space="preserve"
   inkscape:version="0.91 r13725"
   sodipodi:docname="star.svg"><metadata
     id="metadata41"><rdf:RDF><cc:Work
         rdf:about=""><dc:format>image/svg+xml</dc:format><dc:type
           rdf:resource="http://purl.org/dc/dcmitype/StillImage" /><dc:title></dc:title></cc:Work></rdf:RDF></metadata><defs
     id="defs39" /><sodipodi:namedview
     pagecolor="#ffffff"
     bordercolor="#666666"
     borderopacity="1"
     objecttolerance="10"
     gridtolerance="10"
     guidetolerance="10"
     inkscape:pageopacity="0"
     inkscape:pageshadow="2"
     inkscape:window-width="1680"
     inkscape:window-height="1027"
     id="namedview37"
     showgrid="false"
     inkscape:zoom="1.6734241"
     inkscape:cx="101.66988"
     inkscape:cy="23.264138"
     inkscape:window-x="1912"
     inkscape:window-y="19"
     inkscape:window-maximized="1"
     inkscape:current-layer="Capa_1" /><path
     inkscape:connector-curvature="0"
     id="path5"
     d="m 101.80884,121.33138 c 0.51066,1.64246 -1.48683,3.41514 -2.900315,2.34088 -0.750471,-0.57116 -1.500939,-1.14824 -2.25141,-1.71645 -10.887454,-8.29518 -21.769269,-16.59036 -32.656724,-24.885542 -0.417555,0.319614 -0.83511,0.639229 -1.255487,0.955884 -11.22037,8.549688 -22.437919,17.093458 -33.655469,25.646108 -1.413478,1.07426 -3.41097,-0.69842 -2.900312,-2.34088 0.287774,-0.92629 0.575549,-1.85258 0.860501,-2.77591 4.147333,-13.3883 8.294667,-26.779558 12.444823,-40.167858 C 39.184103,78.15382 38.873755,77.917069 38.56059,77.680317 27.343041,69.127668 16.125492,60.583897 4.9079422,52.031248 3.3957171,50.877085 3.8019866,48.169239 5.9066877,48.169239 l 2.7818171,0 40.1642462,0 C 48.98253,47.751964 49.11231,47.33173 49.24209,46.914456 53.499455,33.179908 57.753998,19.43944 62.008541,5.7019329 c 0.0536,-0.68362 0.473982,-1.177839 1.024139,-1.458981 0.07335,-0.04143 0.146709,-0.07695 0.222883,-0.106539 0.132602,-0.05031 0.265203,-0.07694 0.403447,-0.100619 0.107212,-0.01776 0.211601,-0.03551 0.318809,-0.03551 0.146709,-0.003 0.282132,0.01776 0.42602,0.04735 0.104389,0.02072 0.203136,0.04143 0.301882,0.07694 0.101565,0.03847 0.194669,0.08286 0.290594,0.139091 0.53887,0.284102 0.945142,0.775362 0.995923,1.450103 l 0.770218,2.485891 12.382754,39.9784561 1.34859,0 41.59747,0 c 2.10753,0 2.5138,2.707846 0.99875,3.862009 -0.75611,0.574123 -1.50094,1.145286 -2.25141,1.716449 -10.78025,8.215278 -21.560492,16.427597 -32.335096,24.642875 0.149531,0.479422 0.29624,0.958844 0.445767,1.441225 4.291223,13.82333 8.571156,27.658497 12.859559,41.490707 z"
     sodipodi:nodetypes="cccccccccccscccccccccccccccsccccc"
     style="fill:#ffffff" /><g
     id="g7"
     transform="translate(0,78.139)" /><g
     id="g9"
     transform="translate(0,78.139)" /><g
     id="g11"
     transform="translate(0,78.139)" /><g
     id="g13"
     transform="translate(0,78.139)" /><g
     id="g15"
     transform="translate(0,78.139)" /><g
     id="g17"
     transform="translate(0,78.139)" /><g
     id="g19"
     transform="translate(0,78.139)" /><g
     id="g21"
     transform="translate(0,78.139)" /><g
     id="g23"
     transform="translate(0,78.139)" /><g
     id="g25"
     transform="translate(0,78.139)" /><g
     id="g27"
     transform="translate(0,78.139)" /><g
     id="g29"
     transform="translate(0,78.139)" /><g
     id="g31"
     transform="translate(0,78.139)" /><g
     id="g33"
     transform="translate(0,78.139)" /><g
     id="g35"
     transform="translate(0,78.139)" /></svg>