<?xml version="1.0" encoding="UTF-8" standalone="no"?>
<!-- Generator: Adobe Illustrator 16.0.0, SVG Export Plug-In . SVG Version: 6.00 Build 0)  -->

<svg
   xmlns:dc="http://purl.org/dc/elements/1.1/"
   xmlns:cc="http://creativecommons.org/ns#"
   xmlns:rdf="http://www.w3.org/1999/02/22-rdf-syntax-ns#"
   xmlns:svg="http://www.w3.org/2000/svg"
   xmlns="http://www.w3.org/2000/svg"
   xmlns:sodipodi="http://sodipodi.sourceforge.net/DTD/sodipodi-0.dtd"
   xmlns:inkscape="http://www.inkscape.org/namespaces/inkscape"
   version="1.1"
   id="Capa_1"
   x="0px"
   y="0px"
   width="88.925987"
   height="88.925987"
   viewBox="0 0 88.925987 88.925987"
   xml:space="preserve"
   inkscape:version="0.91 r13725"
   sodipodi:docname="star.svg"><metadata
     id="metadata41"><rdf:RDF><cc:Work
         rdf:about=""><dc:format>image/svg+xml</dc:format><dc:type
           rdf:resource="http://purl.org/dc/dcmitype/StillImage" /><dc:title></dc:title></cc:Work></rdf:RDF></metadata><defs
     id="defs39" /><sodipodi:namedview
     pagecolor="#ffffff"
     bordercolor="#666666"
     borderopacity="1"
     objecttolerance="10"
     gridtolerance="10"
     guidetolerance="10"
     inkscape:pageopacity="0"
     inkscape:pageshadow="2"
     inkscape:window-width="1680"
     inkscape:window-height="1027"
     id="namedview37"
     showgrid="false"
     inkscape:zoom="3.3468482"
     inkscape:cx="19.632483"
     inkscape:cy="5.1649144"
     inkscape:window-x="1912"
     inkscape:window-y="19"
     inkscape:window-maximized="1"
     inkscape:current-layer="Capa_1"
     fit-margin-top="0"
     fit-margin-left="0"
     fit-margin-right="0"
     fit-margin-bottom="0" /><path
     inkscape:connector-curvature="0"
     id="path5"
     d="m 72.481232,86.948406 c 0.378424,1.21715 -1.101816,2.53079 -2.149279,1.73471 -0.556136,-0.42326 -1.11227,-0.8509 -1.668407,-1.27197 -8.068147,-6.14715 -16.132115,-12.294288 -24.200262,-18.441432 -0.309429,0.23685 -0.618858,0.473701 -0.930379,0.708358 -8.314854,6.335745 -16.627617,12.667104 -24.940382,19.005044 -1.047457,0.79608 -2.527699,-0.51756 -2.149276,-1.73471 0.213255,-0.68642 0.426511,-1.37285 0.637675,-2.05708 3.07338,-9.921403 6.146762,-19.844994 9.222234,-29.766392 -0.22998,-0.173252 -0.459963,-0.348696 -0.692034,-0.524141 -8.312764,-6.33794 -16.6255268,-12.669301 -24.93829176,-19.00724 -1.120634,-0.855293 -0.819568,-2.861942 0.74012096,-2.861942 l 2.061465,0 29.7637108,0 c 0.09617,-0.309221 0.192346,-0.620636 0.288519,-0.929857 3.15492,-10.177985 6.307749,-20.360358 9.460578,-30.5405365 0.03972,-0.506597 0.351244,-0.872837 0.758938,-1.081178 0.05436,-0.0307 0.108718,-0.05702 0.165167,-0.07895 0.09826,-0.03728 0.196529,-0.05702 0.298975,-0.07456 0.07945,-0.01316 0.156806,-0.026319996 0.236253,-0.026319996 0.108719,-0.002200004 0.209074,0.013159996 0.315702,0.035089996 0.07736,0.01535 0.150534,0.0307 0.22371,0.05702 0.07526,0.02851 0.144259,0.0614 0.215344,0.103074 0.39933,0.210533 0.700398,0.574582 0.738029,1.074598 l 0.57077,1.84217 9.176239,29.6260315 0.999372,0 30.825801,0 c 1.56179,0 1.86285,2.006649 0.74012,2.861941 -0.56031,0.425454 -1.11227,0.848714 -1.6684,1.271975 -7.988706,6.087931 -15.977404,12.173669 -23.961923,18.2616 0.11081,0.355275 0.219529,0.710551 0.330336,1.068019 3.18001,10.243778 6.351654,20.496327 9.529575,30.746678 z"
     sodipodi:nodetypes="cccccccccccscccccccccccccccsccccc"
     style="fill:#000000" /><g
     id="g7"
     transform="translate(-19.537006,58.601996)" /><g
     id="g9"
     transform="translate(-19.537006,58.601996)" /><g
     id="g11"
     transform="translate(-19.537006,58.601996)" /><g
     id="g13"
     transform="translate(-19.537006,58.601996)" /><g
     id="g15"
     transform="translate(-19.537006,58.601996)" /><g
     id="g17"
     transform="translate(-19.537006,58.601996)" /><g
     id="g19"
     transform="translate(-19.537006,58.601996)" /><g
     id="g21"
     transform="translate(-19.537006,58.601996)" /><g
     id="g23"
     transform="translate(-19.537006,58.601996)" /><g
     id="g25"
     transform="translate(-19.537006,58.601996)" /><g
     id="g27"
     transform="translate(-19.537006,58.601996)" /><g
     id="g29"
     transform="translate(-19.537006,58.601996)" /><g
     id="g31"
     transform="translate(-19.537006,58.601996)" /><g
     id="g33"
     transform="translate(-19.537006,58.601996)" /><g
     id="g35"
     transform="translate(-19.537006,58.601996)" /><path
     inkscape:connector-curvature="0"
     id="path5-4"
     d="m 67.942898,80.881626 c 0.317128,1.02 -0.923346,2.12086 -1.801142,1.45373 -0.466054,-0.35471 -0.932108,-0.71308 -1.398162,-1.06595 -6.761287,-5.151441 -13.519071,-10.302887 -20.280357,-15.454323 -0.259309,0.198489 -0.518617,0.396973 -0.779678,0.593624 -6.968032,5.309489 -13.934312,10.61531 -20.900593,15.926649 -0.877793,0.66713 -2.118267,-0.43373 -1.801141,-1.45373 0.178713,-0.57524 0.357426,-1.150487 0.534385,-1.723889 2.575562,-8.314351 5.151124,-16.630532 7.728438,-24.944885 -0.192729,-0.145188 -0.38546,-0.292214 -0.57994,-0.439241 C 21.698427,48.462277 14.732147,43.156457 7.7658662,37.845122 c -0.939116,-0.716753 -0.686816,-2.39837 0.620238,-2.39837 l 1.7275538,0 24.942649,0 c 0.08059,-0.259135 0.16119,-0.520106 0.241785,-0.779241 2.643893,-8.529376 5.286034,-17.062431 7.928174,-25.5936455 0.03329,-0.42454 0.294351,-0.731457 0.636007,-0.906051 0.04555,-0.02573 0.09111,-0.04779 0.138414,-0.06616 0.08235,-0.03124 0.164695,-0.04778 0.250547,-0.06248 0.06658,-0.01103 0.131407,-0.02205 0.197986,-0.02205 0.09111,-0.0019 0.175208,0.01103 0.264565,0.02941 0.06483,0.01286 0.126151,0.02573 0.187474,0.04778 0.06307,0.02389 0.120892,0.05146 0.180463,0.08638 0.334647,0.176432 0.586949,0.481512 0.618485,0.900537 l 0.478317,1.5437795 7.689892,24.82727 0.837496,0 25.832702,0 c 1.30881,0 1.56111,1.681616 0.62025,2.398371 -0.46956,0.356539 -0.932112,0.711241 -1.398173,1.065942 -6.694704,5.101822 -13.389414,10.201805 -20.080616,15.303626 0.09286,0.297729 0.18397,0.595458 0.276828,0.895024 2.664919,8.584513 5.322826,17.176368 7.985995,25.766392 z"
     sodipodi:nodetypes="cccccccccccscccccccccccccccsccccc"
     style="fill:#ffffff" /></svg>