<?xml version="1.0" encoding="UTF-8" standalone="no"?>
<!-- Generator: Adobe Illustrator 16.0.0, SVG Export Plug-In . SVG Version: 6.00 Build 0)  -->

<svg
   xmlns:dc="http://purl.org/dc/elements/1.1/"
   xmlns:cc="http://creativecommons.org/ns#"
   xmlns:rdf="http://www.w3.org/1999/02/22-rdf-syntax-ns#"
   xmlns:svg="http://www.w3.org/2000/svg"
   xmlns="http://www.w3.org/2000/svg"
   xmlns:sodipodi="http://sodipodi.sourceforge.net/DTD/sodipodi-0.dtd"
   xmlns:inkscape="http://www.inkscape.org/namespaces/inkscape"
   version="1.1"
   id="Capa_1"
   x="0px"
   y="0px"
   width="128"
   height="128"
   viewBox="0 0 128 128"
   xml:space="preserve"
   inkscape:version="0.91 r13725"
   sodipodi:docname="star.svg"><metadata
     id="metadata41"><rdf:RDF><cc:Work
         rdf:about=""><dc:format>image/svg+xml</dc:format><dc:type
           rdf:resource="http://purl.org/dc/dcmitype/StillImage" /><dc:title /></cc:Work></rdf:RDF></metadata><defs
     id="defs39" /><sodipodi:namedview
     pagecolor="#ffffff"
     bordercolor="#666666"
     borderopacity="1"
     objecttolerance="10"
     gridtolerance="10"
     guidetolerance="10"
     inkscape:pageopacity="0"
     inkscape:pageshadow="2"
     inkscape:window-width="1920"
     inkscape:window-height="1017"
     id="namedview37"
     showgrid="false"
     inkscape:zoom="3.3468482"
     inkscape:cx="84.286563"
     inkscape:cy="24.701924"
     inkscape:window-x="-8"
     inkscape:window-y="-8"
     inkscape:window-maximized="1"
     inkscape:current-layer="Capa_1" /><path
     inkscape:connector-curvature="0"
     id="path5"
     d="m 101.80884,121.33138 c 0.51066,1.64246 -1.48683,3.41514 -2.900315,2.34088 -0.750471,-0.57116 -1.500939,-1.14824 -2.25141,-1.71645 -10.887454,-8.29518 -21.769269,-16.59036 -32.656724,-24.885542 -0.417555,0.319614 -0.83511,0.639229 -1.255487,0.955884 -11.22037,8.549688 -22.437919,17.093458 -33.655469,25.646108 -1.413478,1.07426 -3.41097,-0.69842 -2.900312,-2.34088 0.287774,-0.92629 0.575549,-1.85258 0.860501,-2.77591 4.147333,-13.3883 8.294667,-26.779558 12.444823,-40.167858 C 39.184103,78.15382 38.873755,77.917069 38.56059,77.680317 27.343041,69.127668 16.125492,60.583897 4.9079422,52.031248 3.3957171,50.877085 3.8019866,48.169239 5.9066877,48.169239 l 2.7818171,0 40.1642462,0 C 48.98253,47.751964 49.11231,47.33173 49.24209,46.914456 53.499455,33.179908 57.753998,19.43944 62.008541,5.7019329 c 0.0536,-0.68362 0.473982,-1.177839 1.024139,-1.458981 0.07335,-0.04143 0.146709,-0.07695 0.222883,-0.106539 0.132602,-0.05031 0.265203,-0.07694 0.403447,-0.100619 0.107212,-0.01776 0.211601,-0.03551 0.318809,-0.03551 0.146709,-0.003 0.282132,0.01776 0.42602,0.04735 0.104389,0.02072 0.203136,0.04143 0.301882,0.07694 0.101565,0.03847 0.194669,0.08286 0.290594,0.139091 0.53887,0.284102 0.945142,0.775362 0.995923,1.450103 l 0.770218,2.485891 12.382754,39.9784561 1.34859,0 41.59747,0 c 2.10753,0 2.5138,2.707846 0.99875,3.862009 -0.75611,0.574123 -1.50094,1.145286 -2.25141,1.716449 -10.78025,8.215278 -21.560492,16.427597 -32.335096,24.642875 0.149531,0.479422 0.29624,0.958844 0.445767,1.441225 4.291223,13.82333 8.571156,27.658497 12.859559,41.490707 z"
     sodipodi:nodetypes="cccccccccccscccccccccccccccsccccc"
     style="fill:#000000" /><g
     id="g7"
     transform="translate(0,78.139)" /><g
     id="g9"
     transform="translate(0,78.139)" /><g
     id="g11"
     transform="translate(0,78.139)" /><g
     id="g13"
     transform="translate(0,78.139)" /><g
     id="g15"
     transform="translate(0,78.139)" /><g
     id="g17"
     transform="translate(0,78.139)" /><g
     id="g19"
     transform="translate(0,78.139)" /><g
     id="g21"
     transform="translate(0,78.139)" /><g
     id="g23"
     transform="translate(0,78.139)" /><g
     id="g25"
     transform="translate(0,78.139)" /><g
     id="g27"
     transform="translate(0,78.139)" /><g
     id="g29"
     transform="translate(0,78.139)" /><g
     id="g31"
     transform="translate(0,78.139)" /><g
     id="g33"
     transform="translate(0,78.139)" /><g
     id="g35"
     transform="translate(0,78.139)" /><path
     inkscape:connector-curvature="0"
     id="path5-4"
     d="m 95.684646,113.14464 c 0.427944,1.37642 -1.245997,2.86196 -2.430527,1.96171 -0.628911,-0.47865 -1.257821,-0.96225 -1.886732,-1.43843 -9.123929,-6.95154 -18.243131,-13.90309 -27.367059,-20.854627 -0.349921,0.267848 -0.699841,0.535689 -1.052126,0.801057 -9.402919,7.16482 -18.803474,14.32469 -28.204029,21.492 -1.184526,0.90025 -2.858468,-0.58529 -2.430526,-1.96171 0.241161,-0.77625 0.482323,-1.55251 0.721119,-2.32628 C 36.510323,99.59867 39.985881,88.376509 43.463804,77.156816 43.203728,76.960894 42.94365,76.762491 42.681211,76.564088 33.280656,69.396778 23.880101,62.236909 14.479546,55.069599 13.212268,54.102385 13.552731,51.83315 15.316517,51.83315 l 2.331225,0 33.658528,0 c 0.108757,-0.349686 0.217516,-0.701851 0.326274,-1.051536 3.567767,-11.509855 7.133168,-23.024672 10.698569,-34.537007 0.04492,-0.572889 0.397208,-0.987055 0.858252,-1.222658 0.06147,-0.03472 0.122945,-0.06449 0.18678,-0.08928 0.111124,-0.04216 0.222246,-0.06448 0.338098,-0.08432 0.08985,-0.01488 0.177326,-0.02976 0.267169,-0.02976 0.122945,-0.0025 0.236433,0.01488 0.357014,0.03968 0.08748,0.01736 0.170233,0.03472 0.252984,0.06448 0.08511,0.03224 0.163137,0.06944 0.243524,0.116562 0.451585,0.238083 0.79205,0.64977 0.834606,1.215218 l 0.645459,2.083232 10.377023,33.502831 1.130148,0 34.8596,0 c 1.76616,0 2.10662,2.269235 0.83698,3.23645 -0.63364,0.481127 -1.25782,0.959775 -1.88674,1.438422 -9.03408,6.884585 -18.068167,13.76669 -27.097522,20.651275 0.12531,0.401767 0.248256,0.803533 0.373563,1.207779 3.596139,11.584257 7.182817,23.178422 10.776595,34.770122 z"
     sodipodi:nodetypes="cccccccccccscccccccccccccccsccccc"
     style="fill:#ffffff" /></svg>